<?xml version="1.0" encoding="UTF-8"?>
<!DOCTYPE svg PUBLIC "-//W3C//DTD SVG 1.1//EN" "http://www.w3.org/Graphics/SVG/1.1/DTD/svg11.dtd">
<!-- Creator: CorelDRAW -->
<svg xmlns="http://www.w3.org/2000/svg" xml:space="preserve" width="192.442mm" height="15.0173mm" version="1.1" style="shape-rendering:geometricPrecision; text-rendering:geometricPrecision; image-rendering:optimizeQuality; fill-rule:evenodd; clip-rule:evenodd"
viewBox="0 0 19375.53 1511.98"
 xmlns:xlink="http://www.w3.org/1999/xlink"
 xmlns:xodm="http://www.corel.com/coreldraw/odm/2003">
 <defs>
  <style type="text/css">
   <![CDATA[
    .str0 {stroke:white;stroke-width:5.76;stroke-miterlimit:22.9256}
    .fil3 {fill:none}
    .fil2 {fill:#086B8F}
    .fil5 {fill:#221F20}
    .fil7 {fill:#233F90}
    .fil4 {fill:#509EBA}
    .fil1 {fill:#519DBB}
    .fil9 {fill:#606364}
    .fil8 {fill:#FFCD03}
    .fil6 {fill:white}
    .fil0 {fill:url(#id0)}
   ]]>
  </style>
  <linearGradient id="id0" gradientUnits="userSpaceOnUse" x1="-19.71" y1="829.49" x2="2324.52" y2="829.49">
   <stop offset="0" style="stop-opacity:1; stop-color:#67963F"/>
   <stop offset="0.2" style="stop-opacity:1; stop-color:#67963F"/>
   <stop offset="0.8" style="stop-opacity:1; stop-color:#519DBB"/>
   <stop offset="1" style="stop-opacity:1; stop-color:#519DBB"/>
  </linearGradient>
 </defs>
 <g id="Layer_x0020_1">
  <metadata id="CorelCorpID_0Corel-Layer"/>
  <path class="fil0" d="M2190.25 456.81l-249.34 0 0 142.79 249.34 0 0 249.34 142.79 0 0 -249.34 0 -142.79 -142.79 0 0 0zm-2190.25 9.32l0 765.07 145.71 0 0 -531.44 335.38 531.44 155.04 0 0 -765.07 -145.71 0 0 514.4 -324.73 -514.4 -165.69 0 0 0zm699.53 382.8c0,216.58 175.55,392.13 392.13,392.13 216.58,0 392.13,-175.55 392.13,-392.13 0,-216.58 -175.55,-392.13 -392.13,-392.13 -216.58,0 -392.13,175.55 -392.13,392.13l0 0zm631.61 -196.07c8.53,-3.2 10.65,-3.73 15.99,-3.2 5.06,0.53 7.72,2.13 16.25,9.06 2.4,1.86 0.53,9.86 -2.93,12.79 -3.2,2.67 -3.46,4 -1.33,5.86 1.07,0.8 1.33,2.13 1.07,4 -0.53,1.86 0,3.2 1.86,4.79 1.33,1.33 2.67,3.2 2.93,4 0.26,1.07 1.6,2.13 2.93,2.67 1.33,0.53 2.4,1.86 2.4,2.93 0,1.86 1.07,2.4 6.39,3.2 1.6,0.26 1.86,1.07 1.86,5.6 0,5.06 -0.26,5.33 -2.67,5.6 -4,0.53 -4,2.67 -0.26,6.66 1.86,1.86 3.46,3.73 3.46,4.26 0,0.53 1.07,1.07 2.4,1.33 2.4,0.53 10.39,9.6 10.39,11.46 0,0.53 1.07,1.33 2.4,1.86 1.33,0.53 2.93,2.13 3.46,3.73l1.86 4.53c0.53,0.8 0.8,3.46 0.8,5.33 0,3.46 0.26,4 4.53,5.86 3.46,1.6 4.26,2.67 4.26,4.53 0,2.4 -0.26,2.4 -4.53,2.4 -4.53,0 -6.66,-1.33 -14.39,-9.32 -2.13,-2.13 -3.46,-2.93 -5.6,-2.67 -2.13,0.26 -3.2,-0.26 -4,-1.6 -0.53,-1.33 -2.13,-2.13 -3.46,-2.13 -3.73,0 -7.46,-2.13 -7.46,-4 0,-2.67 -1.33,-2.13 -4.79,2.13 -1.86,2.13 -3.73,4 -4.53,4 -0.53,0 -1.86,0.8 -2.93,1.86 -1.07,1.07 -2.93,2.13 -4.26,2.13 -1.33,0 -3.73,1.07 -5.33,2.4 -2.93,2.4 -2.93,2.4 -1.33,5.6 0.8,1.86 2.4,6.39 3.2,10.12 1.33,5.06 2.4,7.46 5.06,9.86 3.73,3.46 4,4.79 1.86,7.99 -1.86,2.67 -7.72,2.93 -12.25,0.53 -2.13,-1.07 -3.46,-1.33 -4.79,-0.53 -3.2,1.6 -5.6,1.07 -9.32,-1.86 -4,-3.46 -4.79,-3.46 -11.19,-0.8 -2.67,1.07 -5.86,1.86 -6.93,1.6 -2.93,-0.53 -3.73,0.8 -1.86,3.2 0.8,1.07 1.86,3.2 2.13,5.06 0.53,2.93 0.26,3.73 -1.6,5.06 -1.33,0.8 -3.2,1.6 -4,1.6 -1.07,0 -2.4,1.6 -3.46,3.73 -1.6,3.2 -2.13,3.73 -5.33,3.73 -2.4,0 -4.53,0.8 -6.39,2.4 -3.2,2.93 -7.19,4.79 -10.92,4.79 -1.6,0 -4.26,1.07 -6.39,2.4 -3.73,2.67 -10.65,5.33 -13.32,5.33 -1.07,0 -1.6,0.53 -1.07,1.86 0.53,2.13 -1.33,7.46 -3.46,10.12 -1.6,2.13 -6.66,2.13 -7.72,0.26 -0.53,-0.8 -3.46,-1.6 -7.72,-1.86 -8.53,-0.8 -11.46,0.53 -10.39,5.33 0.53,2.67 0,3.46 -3.46,6.93 -4.26,4 -4.26,4.53 -3.73,14.12 0.53,6.13 1.33,7.99 6.13,11.19 2.4,1.6 4.53,2.93 4.79,2.93 1.6,0 11.19,5.06 11.19,5.86l0.26 2.13c0,0.53 -0.26,1.6 -0.53,2.13 -0.26,0.53 -1.07,2.93 -1.33,5.33 -0.26,2.4 -1.07,5.06 -1.6,5.86 -0.53,0.8 -0.26,4.26 0.26,7.72 1.33,7.46 0.53,12.52 -2.4,16.25 -1.86,2.13 -2.13,3.73 -1.86,7.72 0.26,2.67 0.8,5.33 1.33,5.86 1.33,1.33 1.07,4.79 -0.26,6.13 -0.8,0.53 -2.13,1.07 -3.2,1.07 -1.07,0 -2.93,0.8 -4,1.86 -2.4,2.67 -3.46,2.4 -9.6,-1.07 -6.39,-3.73 -10.92,-3.2 -13.85,1.33 -2.4,3.73 -4.79,4.26 -7.19,2.13 -1.6,-1.33 -1.86,-1.33 -2.93,0 -0.8,0.8 -1.6,3.2 -1.86,5.06l-0.53 3.73 -6.39 0.53c-5.33,0.53 -8.26,1.6 -17.05,6.13 -6.66,3.46 -11.99,6.93 -14.39,9.6l-3.73 4 2.93 1.6c1.6,0.8 2.93,1.86 2.93,2.4 0,0.26 1.33,2.13 2.93,3.73 1.86,2.13 2.93,2.67 2.4,1.33 -0.8,-2.67 3.46,-7.46 6.39,-6.93 1.86,0.26 2.4,1.07 2.67,3.73 0.26,1.86 -0.26,3.73 -0.8,4.26 -1.6,1.6 -1.33,2.4 1.33,1.86 3.2,-0.53 5.06,1.07 6.39,5.33 1.33,4.79 0.53,6.39 -3.2,5.86l-4.53 -1.07c-1.07,-0.26 -1.86,0 -2.13,1.33 -0.26,1.6 -1.33,2.13 -3.46,2.13 -2.4,0 -3.2,0.53 -4,2.4 -0.53,1.33 -1.86,2.93 -2.93,3.73 -1.86,1.33 -1.86,1.33 0,4.26 1.33,1.86 1.86,4.53 1.86,7.46 0,2.67 0.53,6.13 1.33,7.72 1.33,3.46 7.19,9.06 10.92,10.65 2.67,1.33 2.93,4.53 0.53,6.66 -0.8,0.8 -2.4,2.67 -3.46,4.26 -2.13,2.93 -6.93,3.46 -11.99,1.07 -2.67,-1.07 -3.46,-1.07 -6.13,0.8 -1.86,1.07 -4,3.46 -4.79,5.33 -1.6,3.2 -1.86,3.46 -5.33,2.93 -2.13,-0.26 -3.73,0 -3.73,0.26 0,0.53 -1.6,0.8 -3.2,0.8 -2.4,0 -4,-0.8 -6.13,-3.2 -1.6,-1.86 -4.79,-4.53 -7.19,-6.13 -2.13,-1.6 -4.26,-3.73 -4.53,-5.06 -0.8,-2.93 -2.4,-3.46 -17.05,-5.86 -2.4,-0.26 -5.06,-2.13 -7.99,-5.06 -5.06,-5.06 -6.39,-4.79 -6.66,1.86 0,4.53 -1.86,8.26 -4.53,8.79 -1.07,0.26 -2.93,1.07 -4.26,2.13 -2.93,2.4 -10.39,3.46 -12.25,1.86 -0.8,-0.53 -1.86,-3.2 -2.67,-5.86 -0.8,-4 -1.6,-5.06 -4,-5.86 -1.6,-0.53 -4.79,-2.4 -6.93,-4.26 -2.4,-1.86 -5.6,-3.46 -7.99,-3.73 -3.2,-0.53 -4,-1.07 -4.26,-2.93 -0.26,-1.33 0.26,-3.46 0.8,-5.06 1.6,-3.46 0,-6.39 -4.26,-8.26 -1.86,-0.8 -5.06,-2.93 -6.93,-4.79l-5.33 -4.79c-0.8,-0.8 -1.07,-2.67 -0.8,-6.39 0.26,-4.26 0.26,-5.33 -1.07,-5.33 -0.8,0 -2.13,-0.53 -2.67,-1.07 -0.8,-0.8 -1.07,-0.53 -1.33,1.33 0,4.26 -5.86,13.85 -9.32,14.92 -2.4,0.8 -2.93,1.6 -3.2,4.53 -0.53,9.6 -1.6,13.85 -4,15.72l-4 3.2c-2.93,2.4 -7.99,5.6 -9.06,5.6 -0.53,0 -3.2,1.33 -5.6,2.93 -2.4,1.6 -5.33,2.93 -6.66,2.93 -1.33,0 -2.4,0.53 -2.93,1.07 -0.8,1.33 -5.86,1.07 -9.86,-0.53 -1.86,-0.8 -4.26,-1.6 -5.06,-1.6 -0.8,0 -2.4,-0.8 -3.46,-1.86 -1.07,-1.07 -2.4,-1.86 -3.2,-1.86 -1.6,0 -5.06,3.73 -5.06,5.6 0,1.33 -2.13,1.6 -4.79,1.33l-7.46 -0.53c-11.99,-0.8 -20.51,-4 -25.57,-9.32 -1.33,-1.33 -2.13,-1.6 -2.93,-0.8 -0.8,0.53 -2.4,1.07 -3.46,0.8 -4,-0.26 -4,0 -0.8,3.46 1.6,1.86 2.93,4 2.93,4.79 0,1.86 -2.13,7.46 -2.67,7.72l-6.93 0.53c-5.6,0.26 -6.66,0.53 -9.86,4 -3.2,2.93 -4,3.46 -6.39,2.93l-5.6 -1.07c-3.73,-0.8 -5.06,-1.86 -7.19,-6.13 -1.33,-2.67 -2.13,-3.46 -4,-3.46 -3.2,0.26 -14.65,3.2 -16.78,4.26 -2.4,1.33 -4,1.07 -7.19,-0.53l-6.93 -3.2c-5.6,-2.4 -7.46,-5.06 -6.66,-10.65 0.26,-2.93 0.26,-4.26 -0.53,-4.26 -1.86,0 -3.2,-2.13 -2.67,-4 0.26,-1.33 1.33,-1.86 3.2,-1.86 1.6,0 2.93,-0.53 3.46,-1.07 0.26,-0.53 2.93,-1.07 5.6,-1.07 2.93,0 6.39,-0.8 7.99,-1.6 1.6,-0.8 4.26,-1.33 5.86,-1.33 5.06,0.26 5.33,0 6.39,-2.67 0.8,-2.13 0.53,-2.93 -1.07,-4.79 -1.07,-1.07 -1.86,-2.93 -1.86,-3.73 0,-2.93 6.93,-3.73 10.65,-1.07 1.33,0.8 4.79,1.86 7.99,2.13 5.6,0.53 5.6,0.53 8.79,-3.46 1.6,-2.13 4.79,-4.79 7.19,-6.13 2.13,-1.33 3.73,-2.67 3.73,-3.2 -0.26,-0.53 -1.86,-1.86 -3.73,-3.2 -5.33,-3.46 -11.72,-11.99 -11.72,-15.45 0,-1.86 -0.8,-3.73 -2.93,-5.6 -1.6,-1.33 -2.93,-3.2 -2.93,-3.73 0,-1.86 -2.93,-4 -7.99,-5.86 -2.4,-0.8 -6.66,-3.46 -9.32,-5.86 -6.13,-5.33 -7.72,-6.13 -13.85,-6.93 -6.39,-0.8 -7.99,-2.4 -10.39,-9.6 -1.6,-5.06 -1.6,-6.13 -0.53,-10.65 1.07,-4.79 1.86,-6.39 8.26,-15.99 1.86,-2.93 2.67,-5.33 2.93,-10.12l0.26 -6.13 -4.53 -0.26c-4.26,-0.26 -4.79,0 -6.66,2.4 -1.6,2.4 -2.67,2.93 -5.86,2.93 -3.46,0 -4.53,-0.53 -8.26,-4.26 -4.79,-4.79 -5.6,-8.26 -2.67,-11.46 1.07,-1.33 1.6,-3.2 1.6,-6.66 -0.26,-4.26 0,-4.79 2.4,-6.13 1.6,-0.8 3.2,-2.13 4,-2.93 0.8,-0.8 2.93,-2.4 4.79,-3.46 1.86,-1.07 6.39,-4.53 9.86,-7.72 3.46,-3.2 6.66,-5.86 6.93,-5.86 0.26,0 1.07,-1.33 1.33,-2.93 0.26,-1.6 1.6,-4 2.67,-5.33 1.86,-2.4 1.86,-2.4 0,-3.46 -1.07,-0.53 -5.33,-1.07 -9.32,-1.07 -7.46,0 -10.39,-1.33 -10.39,-4.53 0,-1.6 -5.6,-4.26 -9.32,-4.26 -1.33,0 -2.67,-0.53 -2.93,-1.07 -1.07,-1.6 -7.99,-1.07 -9.32,0.53 -0.8,0.8 -2.4,1.33 -3.73,1.33 -2.13,-0.26 -2.67,-0.8 -2.67,-3.2 0,-1.6 -1.07,-4.79 -2.13,-7.19 -1.07,-2.13 -2.13,-5.33 -2.13,-6.93 0,-1.6 -0.26,-3.46 -0.8,-4 -1.07,-1.86 0.53,-5.06 2.4,-5.06 0.8,0 1.86,-1.07 2.67,-2.67 0.53,-1.33 2.4,-3.2 3.73,-4 2.4,-1.33 2.67,-1.86 2.13,-5.6 -0.53,-3.73 -0.26,-4.53 1.6,-5.06 1.07,-0.26 2.4,-0.53 2.93,0 0.53,0.26 2.93,-0.53 5.33,-2.13l10.12 -5.6c4.53,-2.4 5.6,-3.46 6.39,-6.39 0.53,-1.86 1.86,-4.53 3.46,-5.6 2.4,-2.13 3.2,-2.4 10.65,-1.86l8.26 0.26 1.07 -4.26c0.53,-2.4 1.07,-5.6 1.07,-7.19 0,-1.6 0.8,-4.53 1.86,-6.66l2.13 -3.73 5.6 0.53c2.93,0.26 6.66,1.33 7.72,1.86 2.67,1.6 5.86,1.86 6.66,0.26 0.26,-0.53 2.13,-1.07 4,-1.07 1.86,0 4.53,-0.26 5.86,-1.07 5.6,-2.13 14.39,1.07 24.24,8.79 3.2,2.4 4,2.4 5.6,0.53 1.6,-2.13 6.13,-1.86 11.99,0.8 5.33,2.4 9.32,5.33 9.32,7.19 0,0.53 0.8,2.13 1.86,3.46 1.6,1.86 2.93,2.4 8.53,2.4l8.79 0.26c1.07,0 4.26,-0.26 6.93,-0.53 4,-0.53 5.06,-0.26 6.13,1.07 1.6,1.86 4.26,2.13 7.72,0.26 1.6,-0.8 5.86,-1.6 9.6,-2.13 6.93,-0.8 6.93,-0.53 7.99,1.86 1.07,2.67 2.13,3.73 6.93,5.33 2.13,0.8 4,0.8 5.06,0.26 4.53,-2.4 9.06,1.07 11.72,8.26 2.13,6.39 4.79,3.46 4.79,-5.33 0,-2.4 0.53,-5.33 1.33,-6.13 0.8,-0.8 4.26,-2.4 7.99,-3.46 7.19,-1.86 10.12,-4 14.12,-10.39 2.67,-4.26 4.26,-5.06 10.92,-5.86 10.39,-1.33 9.86,-0.8 14.12,-15.45 1.86,-6.93 7.72,-15.45 10.39,-15.45 1.33,0 2.67,0.53 3.46,0.8 0.8,0.53 2.4,-0.26 4.79,-2.67 4.79,-4.26 7.99,-4 9.6,0.53l1.07 3.2 1.86 -4.26c2.93,-6.66 10.65,-11.19 14.92,-9.06 1.33,0.8 2.4,0.53 4.26,-0.26 3.73,-1.86 16.51,-1.86 19.18,0 3.2,2.13 9.86,2.67 14.92,1.33 2.4,-0.53 7.19,-1.33 10.65,-1.6l12.25 -0.8c4.79,-0.53 6.13,-0.26 7.19,1.07 0.8,0.8 2.4,1.86 3.46,2.4 1.33,0.53 2.93,2.4 3.46,4.26 1.33,3.2 1.6,3.46 5.6,2.67 2.13,-0.26 5.33,-1.86 6.66,-2.93l3.2 -2.67c0.26,-0.26 0.26,-1.86 0.26,-4 -0.26,-6.13 5.86,-10.65 12.52,-9.6 3.2,0.53 4,0.26 7.19,-2.93 3.46,-3.46 3.46,-3.46 7.72,-2.4 7.19,2.13 14.39,1.33 20.78,-2.4 4,-2.4 6.93,-3.46 9.86,-3.46 4.26,0 12.25,3.2 17.85,7.46 1.86,1.33 4.26,2.4 5.6,2.4 3.2,0 7.19,2.13 7.72,4 0.26,0.8 1.6,2.13 2.93,2.67 2.4,1.07 2.4,1.07 2.4,-2.67 0,-5.06 -1.6,-8.26 -4.53,-9.86 -5.06,-2.13 -7.46,-12.52 -5.33,-23.44 0.53,-2.4 0.53,-5.06 0,-5.86 -1.86,-3.46 1.33,-5.86 9.86,-7.46 1.86,-0.26 3.73,-1.33 4.26,-1.86 0.53,-1.86 7.72,-5.33 10.39,-5.33 1.07,0 2.13,0.53 2.67,1.07 0.26,0.53 1.33,1.07 2.67,1.07 0.82,1.21 3.48,0.67 6.41,-0.39l0 0zm217.37 196.07c0,-195 142.25,-356.7 328.46,-387.06l0 145.72c-106.82,28.24 -185.94,125.47 -185.94,241.35 0,137.72 111.62,249.34 249.34,249.34 115.61,0 213.11,-78.85 241.08,-185.67l145.72 -0.01c-30.37,186.2 -192.06,328.46 -387.06,328.46 -216.04,0 -391.59,-175.55 -391.59,-392.12z"/>
  <polygon class="fil1" points="2969.7,501.83 2968.63,501.83 2968.63,636.89 2937.47,636.89 2937.47,456.81 2983.55,456.81 3044.56,595.86 3045.62,595.86 3045.62,456.81 3076.79,456.81 3076.79,636.89 3030.44,636.89 "/>
  <path class="fil1" d="M3152.98 569.49l45.29 0 -22.11 -80.98 -1.34 0 -21.84 80.98 0 0zm53.27 29.57l-61.27 0 -10.12 37.83 -36.77 0 54.61 -180.08 47.15 0 54.87 180.08 -37.82 0 -10.66 -37.83z"/>
  <path class="fil1" d="M3305.35 398.47l33.03 19.71 34.1 -19.98 12.25 20.78 -47.42 27.71 -46.08 -26.11 14.12 -22.12 0 0zm76.19 91.9c-9.6,-3.46 -20.25,-6.13 -34.36,-6.13 -34.63,0 -45.82,13.32 -45.82,61.27 0,50.61 11.99,63.67 45.82,63.67 14.12,0 25.57,-2.67 35.96,-6.66l5.33 27.97c-13.85,6.13 -29.57,9.32 -47.68,9.32 -52.75,0 -75.92,-26.11 -75.92,-92.97 0,-64.73 22.11,-92.97 78.05,-92.97 18.38,0 31.97,3.2 43.69,7.46l-5.05 29.04z"/>
  <path class="fil1" d="M3476.37 486.91l-24.78 0 0 50.88 24.78 -0.01c24.24,0 30.37,-6.66 30.37,-26.11 0,-19.7 -7.98,-24.77 -30.37,-24.77l0 0zm37.03 74.05l39.69 75.92 -40.22 0 -34.9 -70.59 -26.64 -0.01 0 70.59 -34.9 0.01 0 -180.08 62.07 0c49.01,0 63.93,18.65 63.93,53.54 0,25.04 -8.53,42.63 -29.04,50.61z"/>
  <polygon class="fil1" points="3642.07,487.44 3642.07,636.89 3606.91,636.89 3606.91,487.44 3560.02,487.44 3560.02,457.08 3688.95,457.08 3688.95,487.44 "/>
  <polygon class="fil1" points="3759.28,636.89 3759.28,606.25 3839.73,486.91 3763.28,486.91 3763.28,457.08 3879.15,457.08 3879.15,487.17 3797.64,607.05 3880.75,607.05 3880.75,636.89 "/>
  <path class="fil1" d="M3948.15 569.49l45.29 0 -22.11 -80.98 -1.34 0 -21.84 80.98 0 0zm53.27 29.57l-61.27 0 -10.12 37.83 -36.77 0 54.61 -180.08 46.89 0 54.87 180.08 -37.83 0 -10.39 -37.83z"/>
  <path class="fil1" d="M3040.83 848.13c0,-47.96 -7.46,-62.07 -37.03,-62.07 -29.3,0 -37.03,13.85 -37.03,62.07 0,47.68 7.46,63.14 37.03,63.14 29.3,0 37.03,-15.45 37.03,-63.14l0 0zm-110.56 1.07c0,-72.46 24.24,-93.5 73.79,-93.5 49.01,0 73.26,20.78 73.26,92.71 0,72.99 -23.44,93.23 -73.26,93.23 -49.55,0 -73.79,-20.25 -73.79,-92.44z"/>
  <polygon class="fil1" points="3108.49,758.62 3143.39,758.62 3143.39,831.62 3153.51,831.62 3201.46,758.62 3240.62,758.62 3181.21,844.4 3243.28,938.7 3202.26,938.7 3152.71,859.86 3143.39,859.86 3143.39,938.7 3108.49,938.7 "/>
  <path class="fil1" d="M3324.26 788.46l-24.77 0 0 50.88 24.77 -0.01c24.24,0 30.37,-6.66 30.37,-26.11 0.27,-19.71 -7.72,-24.77 -30.37,-24.77l0 0zm37.29 74.32l39.69 75.92 -40.21 -0.01 -34.9 -70.59 -26.64 0 0 70.59 -34.9 0 0 -180.08 62.06 0c49.01,0 63.93,18.65 63.93,53.54 0,25.05 -8.79,42.63 -29.04,50.62z"/>
  <polygon class="fil1" points="3425.23,938.7 3425.23,758.62 3540.31,758.62 3540.31,789 3460.12,789 3460.12,832.95 3529.92,832.95 3529.92,863.05 3460.12,863.05 3460.12,908.34 3540.31,908.34 3540.31,938.7 "/>
  <polygon class="fil1" points="3655.39,938.7 3602.91,938.7 3554.16,758.62 3591.19,758.62 3629.28,908.34 3630.61,908.34 3668.97,758.62 3704.4,758.62 "/>
  <path class="fil1" d="M3753.42 871.31l45.29 0 -22.11 -80.98 -1.34 0 -21.84 80.98 0 0zm53.27 29.31l-61.27 0 -10.12 38.1 -36.77 -0.01 54.61 -180.08 46.89 0 54.87 180.08 -37.83 0 -10.39 -38.09z"/>
  <polygon class="fil1" points="3908.45,803.65 3907.12,803.65 3907.12,938.7 3875.96,938.7 3875.96,758.62 3922.31,758.62 3983.05,897.68 3984.38,897.68 3984.38,758.62 4015.55,758.62 4015.55,938.7 3969.19,938.7 "/>
  <path class="fil1" d="M4028.06 962.68c23.71,-7.19 30.37,-16.51 30.37,-40.22l0 -163.83 34.91 0 0 161.16c0,40.49 -12.52,61.8 -55.94,72.99l-9.33 -30.1z"/>
  <polygon class="fil1" points="4131.42,938.7 4131.42,758.62 4246.78,758.62 4246.78,789 4166.59,789 4166.59,832.95 4236.38,832.95 4236.38,863.05 4166.59,863.05 4166.59,908.34 4246.78,908.34 4246.78,938.7 "/>
  <rect class="fil1" x="2937.47" y="1060.45" width="34.9" height="180.08"/>
  <polygon class="fil1" points="3042.96,1105.46 3041.63,1105.46 3041.63,1240.53 3010.46,1240.53 3010.46,1060.45 3056.81,1060.45 3117.55,1199.5 3118.88,1199.5 3118.88,1060.45 3150.05,1060.45 3150.05,1240.53 3103.7,1240.53 "/>
  <path class="fil1" d="M3346.37 1149.95c0,-47.96 -7.46,-62.07 -37.03,-62.07 -29.3,0 -37.03,13.85 -37.03,62.07 0,47.68 7.46,63.14 37.03,63.14 29.58,-0.01 37.03,-15.45 37.03,-63.14l0 0zm-110.28 1.07c0,-72.46 24.24,-93.5 73.53,-93.5 49.01,0 73.26,20.78 73.26,92.71 0,72.99 -23.44,93.23 -73.26,93.23 -49.29,0 -73.53,-20.52 -73.53,-92.44z"/>
  <path class="fil1" d="M3474.24 1090.81l-25.04 0 0 119.08 25.31 0c28.78,0 39.43,-9.6 39.43,-60.74 0,-47.15 -11.2,-58.34 -39.7,-58.34l0 0zm-1.86 149.71l-58.34 0 0 -180.08 57.8 0c61.8,0 78.05,23.97 78.05,89.24 0.01,65.52 -20.24,90.84 -77.52,90.84z"/>
  <path class="fil1" d="M3639.14 1090.81l-25.3 0 0 51.94 25.3 0c23.97,0 30.37,-6.93 30.37,-26.11 0,-20.24 -7.19,-25.84 -30.37,-25.84l0 0zm2.4 82.32l-27.7 0 0 67.4 -34.91 0 0 -180.08 62.6 0c48.48,0 63.93,18.92 63.93,54.61 -0.26,37.83 -17.05,58.07 -63.93,58.07z"/>
  <path class="fil1" d="M3831.47 1149.95c0,-47.96 -7.46,-62.07 -37.03,-62.07 -29.3,0 -37.03,13.85 -37.03,62.07 0,47.68 7.46,63.14 37.03,63.14 29.57,-0.01 37.03,-15.45 37.03,-63.14l0 0zm-110.29 1.07c0,-72.46 23.97,-93.5 73.53,-93.5 49.01,0 73.26,20.78 73.26,92.71 0,72.99 -23.44,93.23 -73.26,93.23 -49.56,0 -73.53,-20.52 -73.53,-92.44z"/>
  <path class="fil1" d="M3959.08 1090.28l-24.78 0 0 50.88 24.78 0c24.24,0 30.37,-6.66 30.37,-26.11 0,-19.71 -7.73,-24.78 -30.37,-24.78l0 0zm37.02 74.32l39.69 75.92 -40.22 0 -34.9 -70.59 -26.64 -0.01 0 70.59 -34.9 0.01 0 -180.08 62.07 0c49.01,0 63.93,18.65 63.93,53.54 0,24.77 -8.52,42.36 -29.04,50.61z"/>
  <polygon class="fil1" points="4092.27,1105.46 4090.93,1105.46 4090.93,1240.53 4059.77,1240.53 4059.77,1060.45 4106.12,1060.45 4166.85,1199.5 4168.18,1199.5 4168.18,1060.45 4199.35,1060.45 4199.35,1240.53 4152.74,1240.53 "/>
  <path class="fil1" d="M4340.8 1149.95c0,-47.96 -7.46,-62.07 -37.03,-62.07 -29.3,0 -37.03,13.85 -37.03,62.07 0,47.68 7.46,63.14 37.03,63.14 29.57,-0.01 37.03,-15.45 37.03,-63.14l0 0zm-110.28 1.07c0,-72.46 24.24,-93.5 73.53,-93.5 49.01,0 73.26,20.78 73.26,92.71 0,72.99 -23.44,93.23 -73.26,93.23 -49.29,0 -73.53,-20.52 -73.53,-92.44z"/>
  <path class="fil1" d="M4451.89 1243.46c-20.51,0 -37.56,-2.67 -51.94,-7.46l6.39 -30.1c13.58,4.53 32.23,7.99 47.68,7.99 16.78,0 28.78,-4.53 28.78,-22.91 0,-14.12 -6.93,-19.18 -30.37,-25.84 -33.03,-9.6 -51.15,-20.51 -51.15,-55.41 0,-38.1 21.04,-52.21 61.8,-52.21 17.32,0 31.97,2.93 47.68,9.32l-4.26 28.78c-12.25,-5.06 -27.97,-7.99 -42.62,-7.99 -15.45,0 -26.37,2.4 -26.37,19.44 0,16.78 10.92,21.31 31.97,27.71 37.03,10.92 49.82,20.78 49.82,53.54 -0.28,39.68 -19.2,55.13 -67.42,55.13z"/>
  <polygon class="fil1" points="4610.39,1090.81 4610.39,1240.53 4575.49,1240.53 4575.49,1090.81 4528.61,1090.81 4528.61,1060.45 4657.54,1060.45 4657.54,1090.81 "/>
  <rect class="fil1" x="2617" y="456.81" width="34.9" height="784.25"/>
  <path class="fil2" d="M5409.83 1493.86c34.63,0 55.94,-11.99 55.94,-46.89l0 -149.71 18.91 0.01 0 149.71c0,47.15 -26.64,64.73 -74.86,64.73 -45.82,0 -72.99,-17.58 -72.99,-64.73l0 -149.71 19.19 0 0 149.71c0.26,34.62 21.04,46.88 53.81,46.88z"/>
  <path class="fil2" d="M5539.02 1508.78l0 -151.84 18.65 0 0 11.19c0,0 26.11,-13.85 50.35,-13.85 42.62,0 51.94,19.18 51.94,75.65l0 79.12 -18.38 0.01 0 -79.12c0,-44.49 -5.06,-59.14 -35.96,-59.14 -24.24,0 -47.68,12.79 -47.68,12.79l0 125.47 -18.91 0 0 -0.27z"/>
  <path class="fil2" d="M5713.51 1356.94l0 0 18.65 0 0 151.84 -18.65 0 0 -151.84 0 0zm0 -60.74l18.65 0 0 22.91 -18.65 0.01 0 -22.92z"/>
  <polygon class="fil2" points="5786.23,1356.94 5826.72,1493.06 5838.72,1493.06 5879.47,1356.94 5898.65,1356.94 5852.83,1508.78 5812.08,1508.78 5766.79,1356.94 "/>
  <path class="fil2" d="M6030.52 1425.4l0 0c0,-40.22 -13.32,-55.14 -42.62,-55.14 -28.24,0 -45.02,15.45 -45.02,55.14l87.63 0 0 0zm12.51 67.12l0.53 15.18c0,0 -35.17,4.26 -59.4,4.26 -46.35,-0.26 -60.21,-27.71 -60.21,-78.32 0,-58.61 26.11,-79.39 63.93,-79.39 39.96,0 61,20.51 61,71.66l-0.53 14.65 -105.48 0.02c0,35.96 10.65,54.61 43.15,54.61 22.91,0 57.01,-2.67 57.01,-2.67z"/>
  <path class="fil2" d="M6093.38 1356.94l18.65 0 0 21.58c0,0 25.04,-18.92 56.74,-24.51l0 18.65c-29.57,5.86 -56.74,23.18 -56.74,23.18l0 113.48 -18.65 0 0 -152.37z"/>
  <polygon class="fil2" points="6191.68,1356.94 6306.76,1356.94 6306.76,1373.45 6214.32,1492.53 6306.76,1492.53 6306.76,1508.78 6191.68,1508.78 6191.68,1492.53 6284.38,1373.45 6191.68,1373.45 "/>
  <path class="fil2" d="M6387.48 1436.05c-20.78,1.86 -28.5,11.46 -28.5,29.83 0,19.44 8.79,30.37 25.84,30.37 24.51,0 53.28,-10.39 53.28,-10.39l0 -54.87 -50.61 5.06 0 0zm-6.93 75.92c-26.37,-0.53 -41.03,-15.99 -41.03,-45.82 0,-27.97 14.39,-41.29 45.55,-44.49l52.75 -5.06 0 -13.58c0,-22.91 -10.65,-31.97 -30.37,-31.97 -22.38,0 -58.61,4.26 -58.61,4.26l-1.07 -14.92c0,0 35.69,-6.13 60.74,-6.13 32.23,0 47.42,15.72 47.42,48.75l0 80.72c1.07,8.79 9.86,12.25 20.25,13.32l-0.8 14.65c-15.18,0 -26.64,-2.93 -35.17,-12.25 0,0 -27.97,11.99 -56.21,12.52l-3.46 0.01z"/>
  <polygon class="fil2" points="6586.46,1356.94 6626.69,1493.06 6638.94,1493.06 6679.43,1356.94 6698.61,1356.94 6652.79,1508.78 6612.04,1508.78 6566.75,1356.94 "/>
  <polygon class="fil2" points="6809.7,1297.26 6844.59,1297.26 6912.26,1481.6 6980.18,1297.26 7014.56,1297.26 7014.56,1508.78 6995.64,1508.78 6995.64,1318.04 6991.38,1318.04 6923.18,1501.85 6900.8,1501.85 6833.14,1318.04 6828.62,1318.04 6828.62,1508.78 6809.7,1508.78 "/>
  <path class="fil2" d="M7107.79 1436.05c-20.78,1.86 -28.5,11.46 -28.5,29.83 0,19.44 8.79,30.37 25.84,30.37 24.51,0 53.28,-10.39 53.28,-10.39l0 -54.87 -50.61 5.06 0 0zm-6.93 75.92c-26.37,-0.53 -41.03,-15.99 -41.03,-45.82 0,-27.97 14.39,-41.29 45.55,-44.49l52.75 -5.06 0 -13.58c0,-22.91 -10.65,-31.97 -30.37,-31.97 -22.38,0 -58.61,4.26 -58.61,4.26l-0.8 -14.92c0,0 35.69,-6.13 60.74,-6.13 32.23,0 47.42,15.72 47.42,48.75l0 80.72c1.07,8.79 9.86,12.25 20.25,13.32l-0.8 14.65c-15.18,0 -26.64,-2.93 -35.17,-12.25 0,0 -27.71,11.99 -56.21,12.52l-3.74 0.01z"/>
  <path class="fil2" d="M7234.05 1356.94l18.65 0 0 21.58c0,0 25.04,-18.92 56.74,-24.51l0 18.65c-29.57,5.86 -56.74,23.18 -56.74,23.18l0 113.48 -18.65 0 0 -152.37z"/>
  <path class="fil2" d="M7341.67 1356.94l0 0 18.66 0 0 151.84 -18.66 0 0 -151.84 0 0zm0 -60.74l18.66 0 0 22.91 -18.66 0.01 0 -22.92z"/>
  <path class="fil2" d="M7518.03 1430.46l0 0c0,-41.56 -7.46,-59.67 -37.29,-59.67 -23.18,0 -47.15,9.86 -47.15,9.86l0 112.95c0,0 21.85,1.86 31.17,1.86 45.81,0.01 53.27,-20.5 53.27,-64.99l0 0zm19.18 -0.26c0,58.61 -15.45,81.78 -72.19,81.78 -19.44,0 -49.82,-2.93 -49.82,-2.93l0 -219.24 18.65 -0.01 0 75.39c0,0 24.24,-10.65 48.48,-10.65 41.82,-0.27 54.88,21.84 54.88,75.65z"/>
  <path class="fil2" d="M7681.59 1430.73c0,-43.42 -13.58,-60.21 -45.29,-60.21 -35.69,0 -46.62,14.65 -46.62,59.94 0,46.08 6.39,65 46.62,65 39.96,0 45.29,-21.31 45.29,-64.73l0 0zm-47.68 81.25c-50.08,-0.8 -63.14,-24.78 -63.14,-81.51 0,-53.81 17.32,-76.19 65.53,-76.19 45.02,0 64.47,23.44 64.47,76.46 0,53.81 -12.52,80.45 -62.87,80.98l-4 -0.01 0 0.27z"/>
  <path class="fil2" d="M7746.05 1356.94l18.65 0 0 21.58c0,0 25.04,-18.92 56.74,-24.51l0 18.65c-29.57,5.86 -56.74,23.18 -56.74,23.18l0 113.48 -18.65 0 0 -152.37z"/>
  <path class="fil2" d="M7971.96 1356.94l0 151.84 -18.38 0 0 -10.65c0,0 -23.18,13.05 -46.35,13.58l-3.45 0c-41.29,-0.53 -49.82,-19.44 -49.82,-75.65l0 -79.39 18.37 0 0 78.85c0,45.55 4.53,59.94 35.69,59.94 23.18,0 45.55,-12.79 45.55,-12.79l0 -125.73 18.39 0z"/>
  <path class="fil2" d="M6900.53 312.69c-2.4,-0.26 -5.33,-0.8 -8.26,-2.13l-6.39 12.79 0 55.68 33.31 0 0 -55.68 -6.93 -12.52c-2.93,1.33 -6.39,1.86 -10.12,1.86 -0.54,0.01 -1.08,0.01 -1.61,0.01z"/>
  <path class="fil3 str0" d="M6900.53 312.69c-2.4,-0.26 -5.33,-0.8 -8.26,-2.13l-6.39 12.79 0 55.68 33.31 0 0 -55.68 -6.93 -12.52c-2.93,1.33 -6.39,1.86 -10.12,1.86 -0.54,0.01 -1.08,0.01 -1.61,0.01z"/>
  <path class="fil2" d="M6915.19 300.44l-8.26 -123.07c0,-3.73 -2.93,-6.66 -6.39,-6.66 -3.46,0 -6.39,2.93 -6.39,6.66l-4 123.07c0,1.07 1.07,2.67 3.46,4.26 1.86,1.33 4.26,1.86 5.86,2.13l4.52 0c7.2,-0.8 10.92,-4.26 11.2,-6.39z"/>
  <path class="fil3 str0" d="M6915.19 300.44l-8.26 -123.07c0,-3.73 -2.93,-6.66 -6.39,-6.66 -3.46,0 -6.39,2.93 -6.39,6.66l-4 123.07c0,1.07 1.07,2.67 3.46,4.26 1.86,1.33 4.26,1.86 5.86,2.13l4.52 0c7.2,-0.8 10.92,-4.26 11.2,-6.39z"/>
  <path class="fil2" d="M6900.8 306.83c0.53,0 1.07,0 1.6,0 0.8,0 1.07,-0.26 1.86,-0.26l-4.53 0c0.27,0.26 0.8,0.26 1.07,0.26z"/>
  <path class="fil3 str0" d="M6900.8 306.83c0.53,0 1.07,0 1.6,0 0.8,0 1.07,-0.26 1.86,-0.26l-4.53 0c0.27,0.26 0.8,0.26 1.07,0.26z"/>
  <path class="fil2" d="M6408.25 312.69c2.4,-0.26 5.6,-0.8 8.26,-2.13l6.39 12.79 0 55.68 -33.3 0 0 -55.68 6.93 -12.52c2.93,1.33 6.39,1.86 10.12,1.86 0.54,0.01 1.34,0.01 1.6,0.01z"/>
  <path class="fil3 str0" d="M6408.25 312.69c2.4,-0.26 5.6,-0.8 8.26,-2.13l6.39 12.79 0 55.68 -33.3 0 0 -55.68 6.93 -12.52c2.93,1.33 6.39,1.86 10.12,1.86 0.54,0.01 1.34,0.01 1.6,0.01z"/>
  <path class="fil2" d="M6393.87 300.44l8.26 -123.07c0,-3.73 2.93,-6.39 6.39,-6.66 3.46,0 6.39,2.93 6.39,6.66l4 123.07c0,1.07 -1.07,2.67 -3.46,4.26 -1.86,1.33 -4.26,1.86 -5.86,2.13l-4.53 0c-7.19,-0.8 -10.92,-4.26 -11.19,-6.39z"/>
  <path class="fil3 str0" d="M6393.87 300.44l8.26 -123.07c0,-3.73 2.93,-6.39 6.39,-6.66 3.46,0 6.39,2.93 6.39,6.66l4 123.07c0,1.07 -1.07,2.67 -3.46,4.26 -1.86,1.33 -4.26,1.86 -5.86,2.13l-4.53 0c-7.19,-0.8 -10.92,-4.26 -11.19,-6.39z"/>
  <path class="fil2" d="M6408.25 306.83c-0.53,0 -1.07,0 -1.6,0 -0.8,0 -1.07,-0.26 -1.86,-0.26l4.53 0c-0.26,0.26 -0.8,0.26 -1.07,0.26z"/>
  <path class="fil3 str0" d="M6408.25 306.83c-0.53,0 -1.07,0 -1.6,0 -0.8,0 -1.07,-0.26 -1.86,-0.26l4.53 0c-0.26,0.26 -0.8,0.26 -1.07,0.26z"/>
  <rect class="fil2 str0" x="5329.38" y="392.61" width="1050.11" height="809.56"/>
  <rect class="fil2 str0" x="6928.24" y="392.61" width="1050.11" height="809.56"/>
  <path class="fil2" d="M6475.91 702.42l0 0 52.21 32.23 0 0 -2.93 4.79 -49.01 -30.37 -45.82 30.37 -3.2 -4.79 48.75 -32.23 0 0zm173.95 -4.8l0 0 95.9 37.03 0 0 -2.13 5.33 -93.77 -36.23 -87.64 36.23 -2.13 -5.33 89.78 -37.03 0 0zm174.75 5.06l0 0 52.21 32.23 0 0.01 -3.2 4.79 -49.01 -30.37 -45.82 30.37 -3.2 -4.79 49.02 -32.24 0 0zm-374.81 91.37c0,0 3.2,-25.04 27.71,-25.57 24.24,-0.26 27.71,25.57 27.71,25.57l0 83.38 77.52 0.01 0 -83.38c0,0 3.2,-25.04 27.97,-25.57 24.24,-0.26 27.71,25.57 27.71,25.57l0 83.38 29.03 0 0 -83.38c0,0 3.2,-25.04 27.97,-25.57 24.24,-0.26 27.71,25.57 27.71,25.57l0 83.38 75.12 0 0 -83.38c0,0 3.2,-25.04 27.97,-25.57 24.24,-0.26 27.71,25.57 27.71,25.57l0 83.38 62.33 0 0 -207.79 -525.05 0 0 207.79 58.34 0 0 -83.39 0.27 0z"/>
  <path class="fil3 str0" d="M6475.91 702.42l0 0 52.21 32.23 0 0 -2.93 4.79 -49.01 -30.37 -45.82 30.37 -3.2 -4.79 48.75 -32.23 0 0zm173.95 -4.8l0 0 95.9 37.03 0 0 -2.13 5.33 -93.77 -36.23 -87.64 36.23 -2.13 -5.33 89.78 -37.03 0 0zm174.75 5.06l0 0 52.21 32.23 0 0.01 -3.2 4.79 -49.01 -30.37 -45.82 30.37 -3.2 -4.79 49.02 -32.24 0 0zm-374.81 91.37c0,0 3.2,-25.04 27.71,-25.57 24.24,-0.26 27.71,25.57 27.71,25.57l0 83.38 77.52 0.01 0 -83.38c0,0 3.2,-25.04 27.97,-25.57 24.24,-0.26 27.71,25.57 27.71,25.57l0 83.38 29.03 0 0 -83.38c0,0 3.2,-25.04 27.97,-25.57 24.24,-0.26 27.71,25.57 27.71,25.57l0 83.38 75.12 0 0 -83.38c0,0 3.2,-25.04 27.97,-25.57 24.24,-0.26 27.71,25.57 27.71,25.57l0 83.38 62.33 0 0 -207.79 -525.05 0 0 207.79 58.34 0 0 -83.39 0.27 0z"/>
  <path class="fil2" d="M6430.89 531.13l0 0 -5.06 -2.93c10.12,-18.11 29.3,-31.17 51.41,-31.17 22.38,0 42.36,12.79 52.21,31.43l-5.06 2.67c-9.06,-16.51 -27.17,-28.24 -47.15,-28.24 -19.97,0 -37.28,11.73 -46.34,28.24l0 0 0 0zm219.25 -41.29l0 0 95.9 37.03 0 0 -2.13 5.33 -93.77 -36.23 -87.64 36.23 -2.13 -5.33 89.78 -37.03 0 0zm175.55 7.19l0 0c22.38,0 42.36,13.05 52.21,31.43l-5.06 2.67c-9.06,-16.51 -27.17,-28.24 -47.15,-28.24 -19.98,0 -37.29,11.99 -46.35,28.24l0 0 0 0 0 0 -5.06 -2.93c10.13,-17.85 29.31,-30.9 51.42,-31.17l0 0zm-375.88 63.67l55.41 0 0 103.09 77.53 0 0 -103.09 55.41 0 0 103.09 29.3 0 0 -102.83 55.42 0 0 102.83 75.12 0 0 -102.83 55.68 0 0 102.83 62.33 0 0 -271.18 -525.05 0 0 270.92 58.34 0 0 -102.83 0.53 0z"/>
  <path class="fil3 str0" d="M6430.89 531.13l0 0 -5.06 -2.93c10.12,-18.11 29.3,-31.17 51.41,-31.17 22.38,0 42.36,12.79 52.21,31.43l-5.06 2.67c-9.06,-16.51 -27.17,-28.24 -47.15,-28.24 -19.97,0 -37.28,11.73 -46.34,28.24l0 0 0 0zm219.25 -41.29l0 0 95.9 37.03 0 0 -2.13 5.33 -93.77 -36.23 -87.64 36.23 -2.13 -5.33 89.78 -37.03 0 0zm175.55 7.19l0 0c22.38,0 42.36,13.05 52.21,31.43l-5.06 2.67c-9.06,-16.51 -27.17,-28.24 -47.15,-28.24 -19.98,0 -37.29,11.99 -46.35,28.24l0 0 0 0 0 0 -5.06 -2.93c10.13,-17.85 29.31,-30.9 51.42,-31.17l0 0zm-375.88 63.67l55.41 0 0 103.09 77.53 0 0 -103.09 55.41 0 0 103.09 29.3 0 0 -102.83 55.42 0 0 102.83 75.12 0 0 -102.83 55.68 0 0 102.83 62.33 0 0 -271.18 -525.05 0 0 270.92 58.34 0 0 -102.83 0.53 0z"/>
  <path class="fil2" d="M6477.52 988.78l0 0c24.24,-0.26 27.71,25.04 27.71,25.04l0 95.9 -55.69 0 0 -95.9c0.27,0 3.2,-24.51 27.98,-25.04l0 0zm321 25.31l0 0c0,0 3.2,-24.51 27.97,-25.04 24.24,-0.26 27.71,25.04 27.71,25.04l0 95.9 -55.68 0 0 -95.9 0 0zm-407.04 188.34l195.79 0 0 -172.62c0,0 7.19,-47.42 65.8,-48.22 57.54,-0.8 65.8,48.22 65.8,48.22l0.01 172.62 197.66 0 0 -271.19 -525.05 0 0 271.19z"/>
  <path class="fil3 str0" d="M6477.52 988.78l0 0c24.24,-0.26 27.71,25.04 27.71,25.04l0 95.9 -55.69 0 0 -95.9c0.27,0 3.2,-24.51 27.98,-25.04l0 0zm321 25.31l0 0c0,0 3.2,-24.51 27.97,-25.04 24.24,-0.26 27.71,25.04 27.71,25.04l0 95.9 -55.68 0 0 -95.9 0 0zm-407.04 188.34l195.79 0 0 -172.62c0,0 7.19,-47.42 65.8,-48.22 57.54,-0.8 65.8,48.22 65.8,48.22l0.01 172.62 197.66 0 0 -271.19 -525.05 0 0 271.19z"/>
  <rect class="fil2 str0" x="6391.47" y="883.29" width="525.05" height="42.36"/>
  <rect class="fil2 str0" x="6391.47" y="663.53" width="58.34" height="0.26"/>
  <rect class="fil2 str0" x="6853.92" y="663.53" width="62.33" height="0.26"/>
  <rect class="fil2 str0" x="6723.39" y="663.53" width="75.12" height="0.26"/>
  <rect class="fil2 str0" x="6638.42" y="663.53" width="29.3" height="0.26"/>
  <rect class="fil2 str0" x="6505.48" y="663.53" width="77.52" height="0.26"/>
  <polygon class="fil2" points="6779.33,531.13 6779.33,531.13 "/>
  <polygon class="fil3 str0" points="6779.33,531.13 6779.33,531.13 "/>
  <polygon class="fil2" points="6541.71,2.88 6558.76,54.03 6750.56,54.03 6767.61,2.88 "/>
  <polygon class="fil3 str0" points="6541.71,2.88 6558.76,54.03 6750.56,54.03 6767.61,2.88 "/>
  <path class="fil2" d="M6750.56 60.95l-191.8 0c-91.11,42.36 -144.91,133.73 -134.52,235.22l137.99 0 31.43 -89.24 -10.65 -10.92 0 -17.05c0,0 20.25,-23.97 73.53,-24.51 46.08,-0.53 69.79,24.78 69.79,24.78l0 17.05 -10.12 10.12 31.17 89.77 137.71 0.01c13.32,-100.7 -50.61,-200.06 -134.53,-235.22z"/>
  <path class="fil3 str0" d="M6750.56 60.95l-191.8 0c-91.11,42.36 -144.91,133.73 -134.52,235.22l137.99 0 31.43 -89.24 -10.65 -10.92 0 -17.05c0,0 20.25,-23.97 73.53,-24.51 46.08,-0.53 69.79,24.78 69.79,24.78l0 17.05 -10.12 10.12 31.17 89.77 137.71 0.01c13.32,-100.7 -50.61,-200.06 -134.53,-235.22z"/>
  <path class="fil2" d="M6887.22 307.63c-1.33,-1.6 -2.67,-3.2 -2.93,-5.6l-137.2 0.01 0 76.98 132.67 0 0 -56.47 7.46 -14.92z"/>
  <path class="fil3 str0" d="M6887.22 307.63c-1.33,-1.6 -2.67,-3.2 -2.93,-5.6l-137.2 0.01 0 76.98 132.67 0 0 -56.47 7.46 -14.92z"/>
  <path class="fil2" d="M6421.84 307.36c1.33,-1.6 2.67,-3.2 2.93,-5.6l137.19 0 0 77.52 -132.66 0.01 0 -57.01 -7.46 -14.92z"/>
  <path class="fil3 str0" d="M6421.84 307.36c1.33,-1.6 2.67,-3.2 2.93,-5.6l137.19 0 0 77.52 -132.66 0.01 0 -57.01 -7.46 -14.92z"/>
  <path class="fil2" d="M6701.28 194.15l0 0c-8.26,-8.26 -26.37,-14.39 -46.62,-14.39 -19.98,0 -37.29,6.39 -45.82,14.39l-3.46 -3.73c10.12,-9.32 28.24,-15.72 49.28,-15.72 21.31,0 40.22,6.39 50.35,15.99l-3.74 3.45 0 0zm7.72 11.19l11.46 -12.25 0 -11.72c0,0 -21.31,-21.31 -65.26,-21.04 -45.02,0.53 -66.07,20.78 -66.07,20.78l0 11.72 11.46 11.72 -32.5 92.44 0 81.78 173.14 0 0 -81.78 -32.23 -91.64z"/>
  <path class="fil3 str0" d="M6701.28 194.15l0 0c-8.26,-8.26 -26.37,-14.39 -46.62,-14.39 -19.98,0 -37.29,6.39 -45.82,14.39l-3.46 -3.73c10.12,-9.32 28.24,-15.72 49.28,-15.72 21.31,0 40.22,6.39 50.35,15.99l-3.74 3.45 0 0zm7.72 11.19l11.46 -12.25 0 -11.72c0,0 -21.31,-21.31 -65.26,-21.04 -45.02,0.53 -66.07,20.78 -66.07,20.78l0 11.72 11.46 11.72 -32.5 92.44 0 81.78 173.14 0 0 -81.78 -32.23 -91.64z"/>
  <path class="fil4" d="M9038.57 491.7l10.92 24.78 26.64 -2.93 -15.72 21.58 15.72 21.58 -26.64 -2.93 -10.92 25.57 -10.92 -25.57 -28.5 2.93 17.85 -21.58 -16.78 -21.58 27.71 2.93 10.65 -24.78 0 0zm-72.46 -48.48l-5.33 0c-57.54,0.26 -110.82,6.66 -159.57,19.18 -49.55,12.79 -100.16,31.7 -151.58,56.74l0 0.26 21.58 350.03c2.67,43.42 11.72,84.71 27.71,123.34 15.72,38.89 36.5,74.05 62.07,105.76 25.57,31.43 55.68,58.61 90.3,81.51 34.63,22.64 71.93,39.69 111.89,50.88 41.56,-11.72 79.39,-29.3 114.01,-52.75 34.63,-23.44 64.47,-50.88 89.77,-82.32 25.31,-31.7 45.55,-66.6 60.74,-105.22 15.18,-38.36 23.97,-78.85 26.64,-120.94l21.85 -350.3c-51.94,-26.37 -103.89,-45.55 -155.3,-57.8 -50.88,-11.98 -102.57,-18.11 -154.78,-18.37l0 0zm-79.65 48.48l10.92 24.78 26.64 -2.93 -15.72 21.58 15.72 21.58 -26.64 -2.93 -10.92 25.57 -10.92 -25.57 -28.5 2.93 17.85 -21.58 -16.78 -21.58 27.71 2.93 10.65 -24.78 0 0zm76.99 101.5l10.92 24.78 26.64 -2.93 -15.72 21.85 15.72 21.58 -26.64 -2.93 -10.92 25.57 -10.92 -25.57 -28.5 2.93 17.85 -21.58 -16.78 -21.85 27.71 2.93 10.65 -24.78 0 0zm267.45 274.38l20.78 -334.59c-3.2,-1.33 -6.39,-2.93 -9.32,-4.53 -2.93,-1.6 -6.39,-3.2 -10.39,-4.53l-21.58 342.31c-1.86,35.43 -9.32,69.79 -21.85,103.09 -12.52,33.3 -29.3,63.67 -50.88,91.37 -21.31,27.71 -46.62,52.21 -75.92,73.53 -29.3,21.31 -62.07,37.83 -98.03,49.82 -34.1,-11.19 -66.07,-26.9 -95.1,-47.42 -29.3,-20.51 -54.87,-44.22 -76.46,-71.66 -21.58,-27.17 -39.16,-57.8 -52.21,-91.64 -13.05,-33.83 -21.04,-69.53 -23.71,-107.09l-21.85 -342.31c-3.2,1.33 -6.66,2.93 -10.39,4.53 -3.73,1.6 -6.66,3.2 -9.32,4.53l20.78 334.59c2.67,39.43 10.92,77.25 25.04,113.48 14.12,36.23 33.03,69 56.21,98.57 23.44,29.57 50.88,55.14 82.85,76.98 31.97,21.85 66.6,38.1 104.16,49.28 36.76,-11.19 71.12,-27.44 102.56,-48.75 31.7,-21.31 59.14,-46.89 82.85,-76.46 23.71,-29.57 42.62,-62.33 56.74,-98.57 14.14,-36.22 22.39,-74.31 25.06,-114.54l0 0zm-267.45 292.23c-29.57,-10.39 -56.74,-24.24 -81.51,-41.56 -24.78,-17.05 -46.62,-36.76 -65.53,-59.14 10.39,0 18.65,-1.07 24.78,-2.93 5.86,-1.86 11.19,-4 15.72,-6.39 4.53,-2.4 9.32,-4.53 14.39,-6.39 4.79,-1.86 11.46,-2.93 19.18,-2.93 7.99,0 14.39,1.07 19.18,2.93 4.79,1.86 9.86,4 14.92,6.39 5.06,2.4 10.39,4.53 16.25,6.39 5.86,2.13 13.58,2.93 22.64,2.93 9.32,0 16.51,-1.07 22.11,-2.93 5.6,-1.86 10.65,-4 15.18,-6.39 4.53,-2.4 9.32,-4.53 14.39,-6.39 5.06,-1.86 11.19,-2.93 19.18,-2.93 8.53,0 15.18,1.07 20.25,2.93 4.79,1.86 9.86,4 14.92,6.39 5.06,2.4 10.39,4.53 16.25,6.39 5.86,2.13 13.85,2.93 23.71,2.93 -39.98,46.63 -88.73,80.18 -146,100.7l0 0zm50.34 -145.18c-5.33,2.13 -10.12,4.26 -14.92,6.93 -4.53,2.67 -9.6,5.06 -15.18,6.93 -5.6,2.13 -12.79,2.93 -21.31,2.93 -8.53,0 -15.45,-1.07 -20.78,-2.93 -5.33,-1.86 -10.39,-4.26 -15.18,-6.93 -4.79,-2.67 -10.12,-5.06 -15.18,-6.93 -5.33,-1.86 -12.25,-2.93 -20.78,-2.93 -9.32,0 -16.25,1.07 -21.31,2.93 -5.06,2.13 -9.86,4 -14.39,6.39 -4.53,2.4 -9.6,4.53 -14.92,6.39 -5.33,2.13 -12.52,2.93 -21.58,2.93 -7.99,0 -16.78,-1.6 -26.64,-5.06 -3.2,-4.53 -6.13,-9.32 -8.26,-13.85 -2.4,-4.53 -4.79,-9.32 -7.46,-13.85 5.86,2.67 12.25,5.33 18.65,7.99 6.66,2.67 14.39,4 23.71,4 8.53,0 15.45,-1.07 20.78,-2.93 5.33,-1.86 10.12,-4 14.65,-6.39 4.53,-2.4 9.86,-4.53 15.45,-6.39 5.6,-2.13 12.52,-2.93 21.31,-2.93 8.53,0 15.72,1.07 21.31,2.93 5.6,1.86 10.39,4 14.92,6.39 4.26,2.4 9.06,4.53 14.39,6.39 5.33,1.86 12.52,2.93 21.58,2.93 8.53,0 15.72,-1.07 21.31,-2.93 5.6,-1.86 10.65,-4 15.18,-6.39 4.53,-2.4 9.6,-4.53 14.92,-6.39 5.33,-2.13 12.25,-2.93 20.78,-2.93 8.53,0 15.72,1.07 21.31,2.93 5.6,1.86 10.65,4 15.18,6.39 4.53,2.4 9.6,4.53 14.92,6.39 5.33,1.86 12.52,2.93 21.85,2.93 7.99,0 15.18,-1.07 22.11,-2.93 6.93,-1.86 13.58,-4.53 20.25,-7.72 -3.2,5.33 -5.86,9.6 -7.99,13.32 -1.86,3.73 -4.53,7.99 -7.99,13.32 -4,1.33 -7.99,2.67 -12.25,4 -4.26,1.33 -9.06,1.86 -14.39,1.86 -9.32,0 -16.51,-1.07 -21.85,-2.93 -5.33,-1.86 -10.39,-4.26 -15.18,-6.93 -5.06,-2.67 -10.12,-5.06 -15.18,-6.93 -5.33,-1.86 -12.25,-2.93 -20.78,-2.93 -8.53,0 -15.72,1.07 -21.05,2.93l0 0zm-50.34 -297.02l63.14 127.33 44.49 -59.14 106.55 141.19c-2.67,17.05 -9.6,30.37 -20.78,39.96 -11.19,9.6 -27.71,14.39 -49.28,14.39 -7.99,0 -14.39,-1.07 -19.18,-2.93 -5.06,-2.13 -9.86,-4 -14.92,-6.39 -5.06,-2.4 -10.39,-4.53 -16.25,-6.39 -5.86,-1.86 -13.58,-2.93 -22.64,-2.93 -9.06,0 -16.51,1.07 -22.11,2.93 -5.6,2.13 -10.65,4 -15.18,6.39 -4.53,2.4 -9.32,4.53 -14.39,6.39 -4.79,1.86 -11.46,2.93 -19.18,2.93 -8.53,0 -15.18,-1.07 -20.25,-2.93 -5.06,-2.13 -9.86,-4 -14.92,-6.39 -4.79,-2.4 -10.12,-4.53 -15.72,-6.39 -5.6,-1.86 -13.05,-2.93 -22.11,-2.93 -9.32,0 -16.51,1.07 -22.11,2.93 -5.6,2.13 -10.92,4 -15.72,6.39 -4.79,2.4 -9.86,4.53 -14.92,6.39 -5.06,1.86 -11.46,2.93 -19.18,2.93 -22.38,0 -38.62,-4.26 -48.75,-12.79 -10.12,-8.53 -17.32,-22.11 -21.31,-40.49l106.55 -142.25 44.49 59.14 63.68 -127.33z"/>
  <path class="fil5" d="M9928.85 584.41l48.48 0c9.06,0 16.78,-0.53 23.71,-1.6 6.66,-1.07 12.52,-3.2 17.05,-6.66 4.53,-3.2 8.26,-7.99 10.65,-14.12 2.4,-6.13 3.73,-13.85 3.73,-23.71 0,-9.6 -1.07,-17.05 -3.46,-22.91 -2.4,-5.86 -5.86,-10.39 -10.12,-13.58 -4.53,-3.2 -10.12,-5.6 -17.05,-6.66 -6.93,-1.33 -14.92,-1.86 -24.24,-1.86l-48.48 -0.02 0 91.11 -0.26 0zm0 123.34l-25.04 0 0 -235.49 75.38 0c13.32,0 25.04,1.07 34.9,3.2 9.86,2.13 18.11,5.86 24.51,10.92 6.39,5.06 11.19,11.72 14.39,19.98 3.2,8.26 4.53,18.38 4.53,30.64 0,19.98 -4,35.17 -12.25,45.55 -8.26,10.39 -20.78,17.05 -37.83,20.25l54.87 104.96 -28.5 -0.01 -52.75 -102.29 -52.2 0 0 102.29z"/>
  <polygon class="fil5" points="10109.19,707.75 10109.19,472.26 10250.12,472.26 10250.12,493.3 10133.97,493.3 10133.97,578.28 10234.66,578.28 10234.66,599.32 10133.97,599.32 10133.97,686.7 10250.12,686.7 10250.12,707.75 "/>
  <path class="fil5" d="M10325.24 589.47l46.62 0c9.06,0 16.78,-0.53 23.71,-1.86 6.93,-1.33 12.52,-3.46 17.05,-6.93 4.53,-3.46 7.99,-8.26 10.39,-14.65 2.4,-6.39 3.73,-14.65 3.73,-25.04 0,-9.86 -1.07,-17.85 -3.46,-23.97 -2.4,-6.13 -5.6,-10.92 -10.12,-14.39 -4.53,-3.46 -10.12,-5.86 -17.05,-7.19 -6.93,-1.33 -14.92,-1.86 -24.24,-1.86l-46.62 -0.01 0 95.9 0 0zm0 118.28l-25.04 0 0 -235.49 73.52 0c13.32,0 25.04,1.07 34.9,3.46 9.86,2.4 18.11,6.13 24.51,11.46 6.39,5.33 11.19,12.25 14.39,20.78 3.2,8.53 4.53,19.18 4.53,31.97 0,25.57 -6.39,43.96 -18.92,54.87 -12.52,10.92 -32.5,16.25 -59.4,16.25l-48.75 -0.01 0 96.71 0.27 0z"/>
  <path class="fil5" d="M10649.16 625.7c0,15.18 -1.86,28.24 -5.6,38.89 -3.73,10.92 -9.32,19.71 -16.51,26.64 -7.19,6.93 -15.99,11.99 -26.37,15.18 -10.39,3.2 -22.11,5.06 -35.17,5.06 -25.31,0 -45.02,-6.39 -59.14,-19.71 -13.85,-13.05 -20.78,-33.83 -20.78,-62.6l0 -157.17 25.05 -0.01 0 154.51c0,22.64 4.53,38.89 13.85,48.48 9.32,9.86 23.44,14.65 42.62,14.65 18.92,0 33.03,-5.06 42.62,-14.92 9.6,-9.86 14.39,-26.11 14.39,-48.48l0 -154.51 25.04 0.01 0 153.97z"/>
  <path class="fil5" d="M10837.24 641.95c0,-15.18 -4,-26.37 -11.72,-33.3 -7.99,-6.93 -19.98,-10.65 -36.23,-10.65l-55.69 -0.01 0 88.44 55.68 0c16.25,0 28.24,-3.46 36.23,-10.65 7.73,-6.93 11.73,-18.38 11.73,-33.83l0 0zm-4.27 -106.56c0,-16.25 -4,-27.17 -12.25,-33.3 -8.26,-5.86 -19.71,-8.79 -34.36,-8.79l-52.48 0 0 83.91 52.48 0c14.39,0 25.84,-2.93 34.1,-9.06 8.52,-6.12 12.51,-17.05 12.51,-32.76l0 0zm29.57 107.89c0,22.11 -6.13,38.36 -18.65,48.75 -12.25,10.39 -32.5,15.45 -60.47,15.45l-75.12 -0.01 0 -235.49 75.12 0c26.64,0 45.55,5.06 57.28,15.18 11.72,10.12 17.32,25.57 17.32,45.82 0,26.9 -9.6,44.49 -29.04,52.48l0 1.33c11.46,4.26 19.71,10.92 25.04,19.71 5.86,8.8 8.52,21.05 8.52,36.77z"/>
  <polygon class="fil5" points="10913.15,707.75 10913.15,472.26 10938.19,472.26 10938.19,686.7 11048.22,686.7 11048.22,707.75 "/>
  <rect class="fil5" x="11088.97" y="471.99" width="25.04" height="235.49"/>
  <polygon class="fil5" points="11179.01,471.99 11204.05,471.99 11204.05,576.15 11226.16,576.15 11302.61,471.99 11331.65,471.99 11246.41,586 11333.52,707.48 11303.42,707.48 11224.3,597.46 11204.05,597.46 11204.05,707.48 11179.01,707.48 "/>
  <path class="fil5" d="M11401.44 628.89l86.85 0 -42.89 -134.52 -1.33 0 -42.63 134.52 0 0zm93.24 21.04l-99.9 0 -18.11 57.54 -25.57 0 77.25 -235.49 33.56 0 77.52 235.49 -26.37 0 -18.37 -57.54z"/>
  <path class="fil5" d="M11784.52 645.41c0,11.72 -1.33,21.85 -4,30.37 -2.67,8.53 -7.19,15.18 -13.58,20.51 -6.13,5.33 -14.39,9.06 -24.24,11.46 -9.86,2.4 -21.85,3.73 -35.96,3.73 -12.52,0 -23.97,-0.8 -34.1,-2.67 -10.39,-1.86 -20.51,-4.53 -30.37,-8.26l5.33 -21.31c9.32,3.2 19.18,5.86 29.83,7.72 10.65,1.86 21.31,2.93 32.5,2.93 8.53,0 15.99,-0.53 22.11,-1.86 6.13,-1.07 11.19,-3.46 15.18,-6.66 4,-3.2 7.19,-7.46 9.06,-13.05 1.86,-5.33 2.93,-12.25 2.93,-20.78 0,-6.66 -0.8,-12.52 -2.13,-17.58 -1.33,-5.06 -4,-9.32 -7.99,-12.79 -3.73,-3.73 -9.06,-6.93 -15.45,-9.6 -6.39,-2.93 -14.65,-5.6 -24.51,-8.53 -10.92,-3.2 -20.51,-6.39 -28.78,-10.12 -8.26,-3.73 -14.92,-7.99 -20.25,-13.32 -5.33,-5.33 -9.32,-11.46 -11.99,-18.65 -2.67,-7.19 -4,-15.72 -4,-25.57 0,-21.04 5.86,-37.03 17.85,-47.42 11.72,-10.65 30.37,-15.99 55.14,-15.99 10.39,0 20.51,1.07 30.64,2.93 10.12,1.86 19.71,4.53 28.78,7.99l-4.26 21.04c-9.06,-3.2 -17.85,-5.33 -26.37,-7.19 -8.53,-1.6 -17.85,-2.67 -27.97,-2.67 -17.58,0 -30.1,3.2 -37.29,9.32 -7.46,6.13 -10.92,16.25 -10.92,30.64 0,7.19 1.07,13.32 2.67,18.11 1.86,4.79 4.53,8.79 8.26,12.25 3.73,3.2 8.53,6.13 14.12,8.53 5.6,2.4 12.25,4.79 19.98,6.93 13.85,4.53 25.31,8.53 34.1,12.79 9.06,4 15.99,8.79 21.31,13.85 5.06,5.06 8.79,11.19 10.92,18.11 2.4,6.67 3.46,14.93 3.46,24.79z"/>
  <polygon class="fil5" points="11830.86,707.75 11830.86,472.26 11855.9,472.26 11855.9,686.7 11965.65,686.7 11965.65,707.75 "/>
  <path class="fil5" d="M12073.01 689.63c12.25,0 22.64,-1.86 30.64,-5.33 8.26,-3.73 14.92,-9.32 19.71,-17.32 5.06,-7.99 8.53,-18.38 10.39,-31.17 2.13,-12.79 3.2,-28.24 3.2,-46.35 0,-18.38 -1.07,-33.83 -3.2,-46.62 -2.13,-12.52 -5.6,-22.91 -10.39,-30.64 -5.06,-7.72 -11.46,-13.32 -19.71,-16.78 -8.26,-3.46 -18.38,-5.06 -30.64,-5.06 -12.25,0 -22.64,1.6 -30.64,5.06 -8.26,3.46 -14.92,9.06 -19.71,16.78 -5.06,7.72 -8.53,17.85 -10.65,30.64 -2.13,12.52 -3.2,28.24 -3.2,46.62 0,18.11 1.07,33.57 3.2,46.35 2.13,12.79 5.6,23.18 10.65,31.17 4.79,7.99 11.46,13.85 19.71,17.32 7.99,3.45 18.38,5.33 30.64,5.33l0 0zm0.26 21.84c-15.45,0 -28.78,-2.13 -40.22,-6.13 -11.46,-4 -20.78,-10.92 -28.24,-20.25 -7.46,-9.6 -13.05,-21.85 -16.78,-37.29 -3.73,-15.45 -5.6,-34.63 -5.6,-57.28 0,-22.91 1.86,-42.09 5.6,-57.8 3.73,-15.72 9.32,-28.24 16.78,-37.83 7.46,-9.6 16.78,-16.51 28.24,-20.51 11.46,-4.26 24.78,-6.13 40.22,-6.13 15.18,0 28.5,2.13 39.69,6.13 11.19,4.26 20.78,10.92 28.24,20.51 7.46,9.32 13.05,21.85 16.78,37.56 3.73,15.45 5.6,34.63 5.6,57.28 0,22.91 -1.86,42.36 -5.33,57.8 -3.73,15.45 -9.06,28.24 -16.51,37.56 -7.46,9.6 -16.78,16.25 -28.24,20.51 -11.46,4 -24.78,5.86 -40.23,5.86z"/>
  <polygon class="fil5" points="12184.36,471.99 12210.2,471.99 12273.34,683.24 12274.67,683.24 12337,471.99 12361.51,471.99 12290.65,707.48 12255.49,707.48 "/>
  <polygon class="fil5" points="12397.21,707.75 12397.21,472.26 12538.4,472.26 12538.4,493.3 12422.25,493.3 12422.25,578.28 12522.94,578.28 12522.94,599.32 12422.25,599.32 12422.25,686.7 12538.4,686.7 12538.4,707.75 "/>
  <polygon class="fil5" points="12612.71,498.63 12611.38,498.63 12611.38,707.75 12588.48,707.75 12588.48,472.26 12625.24,472.26 12730.73,680.57 12732.06,680.57 12732.06,472.26 12755.24,472.26 12755.24,707.75 12718.74,707.75 "/>
  <rect class="fil5" x="12820.23" y="471.99" width="25.04" height="235.49"/>
  <path class="fil5" d="M12942.23 471.99l0 216.84c0,11.19 -1.07,21.04 -2.93,29.57 -1.86,8.53 -5.06,15.99 -9.6,22.38 -4.53,6.39 -10.39,11.72 -17.85,16.51 -7.46,4.53 -16.78,8.53 -27.97,11.72l-6.66 -21.04c7.46,-2.13 13.85,-4.79 18.65,-7.99 5.06,-3.2 9.06,-7.19 12.25,-11.72 3.2,-4.53 5.33,-9.86 6.66,-16.25 1.33,-6.13 1.86,-13.32 1.86,-21.31l0 -218.7 25.58 0z"/>
  <path class="fil5" d="M13024.82 628.89l86.84 0 -42.89 -134.52 -1.33 0 -42.62 134.52 0 0zm93.49 21.04l-99.89 0 -18.11 57.54 -25.58 0 77.25 -235.49 33.57 0 77.52 235.49 -26.37 0 -18.38 -57.54z"/>
  <polygon class="fil5" points="9950.15,829.75 9997.84,936.58 9999.44,936.58 10046.86,829.75 10099.87,829.75 10099.87,1065.24 10058.58,1065.24 10058.58,891.02 10056.72,891.02 10016.76,982.66 9977.86,982.66 9937.37,891.29 9935.78,891.29 9935.78,1065.24 9895.54,1065.24 9895.54,829.75 "/>
  <rect class="fil5" x="10149.15" y="829.75" width="45.82" height="235.49"/>
  <polygon class="fil5" points="10287.41,888.62 10285.81,888.62 10285.81,1065.24 10245.05,1065.24 10245.05,829.75 10305.52,829.75 10384.9,1011.7 10386.77,1011.7 10386.77,829.75 10427.53,829.75 10427.53,1065.24 10366.53,1065.24 "/>
  <rect class="fil5" x="10477.34" y="829.75" width="45.82" height="235.49"/>
  <path class="fil5" d="M10718.69 997.05c0,13.05 -1.6,24.24 -4.79,33.3 -3.2,9.06 -8.26,16.51 -15.45,22.38 -7.19,5.86 -16.25,10.12 -27.17,12.52 -11.19,2.67 -24.51,4 -40.22,4 -13.58,0 -25.84,-0.8 -37.03,-2.67 -11.19,-1.86 -21.58,-4.26 -31.17,-7.19l8.26 -39.43c9.06,3.2 19.18,5.6 30.37,7.46 11.19,1.86 21.85,2.93 32.23,2.93 5.33,0 10.65,-0.53 15.18,-1.33 4.53,-0.8 8.53,-2.4 11.72,-4.53 3.2,-2.13 5.86,-5.33 7.72,-9.32 1.86,-4 2.67,-8.79 2.67,-14.92 0,-4.53 -0.53,-8.53 -1.86,-11.99 -1.33,-3.2 -3.46,-6.13 -6.66,-8.79 -3.2,-2.4 -7.19,-4.79 -12.25,-6.93 -5.06,-2.13 -11.46,-4.26 -19.18,-6.39 -10.65,-3.2 -20.25,-6.39 -28.5,-10.12 -8.26,-3.73 -15.18,-8.26 -20.78,-13.58 -5.6,-5.6 -9.86,-11.99 -12.79,-19.98 -2.93,-7.72 -4.53,-17.32 -4.53,-28.78 0,-25.04 6.93,-42.62 20.51,-53.01 13.58,-10.39 33.83,-15.45 60.47,-15.45 11.46,0 22.11,1.07 31.97,2.93 9.86,2.13 19.98,5.06 30.64,9.32l-5.6 38.1c-8.26,-3.2 -17.05,-5.86 -26.64,-7.72 -9.6,-1.86 -19.44,-2.67 -29.3,-2.67 -5.06,0 -9.6,0.26 -13.85,0.8 -4.26,0.53 -7.72,1.6 -10.92,3.46 -3.2,1.86 -5.6,4.53 -7.19,7.72 -1.86,3.2 -2.67,7.72 -2.67,13.05 0,5.6 0.8,10.12 2.67,13.85 1.86,3.73 4.26,6.93 7.99,9.6 3.46,2.67 7.72,4.79 13.05,6.93 5.06,1.86 11.19,4 18.38,5.86 11.99,3.46 22.11,7.19 30.64,10.92 8.26,3.73 14.92,8.26 19.98,13.32 5.06,5.33 8.79,11.46 10.92,18.65 1.87,7.98 3.21,16.77 3.21,27.7z"/>
  <polygon class="fil5" points="10838.3,869.44 10838.3,1065.24 10792.48,1065.24 10792.48,869.44 10730.95,869.44 10730.95,829.75 10899.83,829.75 10899.83,869.44 "/>
  <path class="fil5" d="M11049.55 901.15c0,-12.79 -2.93,-21.31 -8.79,-25.57 -5.86,-4.26 -16.25,-6.66 -30.9,-6.66l-32.5 -0.01 0 66.33 32.5 0c7.99,0 14.39,-0.53 19.44,-1.86 5.06,-1.07 9.32,-3.2 12.25,-5.86 2.93,-2.67 5.06,-6.13 6.13,-10.65 1.07,-4 1.86,-9.32 1.86,-15.72l0 0zm46.62 -1.34c0,16.51 -2.93,30.37 -8.79,41.56 -5.86,11.19 -15.72,19.44 -29.04,24.78l51.94 99.36 -52.48 -0.01 -45.82 -92.44 -34.9 0 0 92.44 -45.82 0 0 -235.49 81.25 0c15.99,0 29.3,1.6 40.22,4.53 10.65,2.93 19.44,7.46 25.57,13.32 6.39,5.86 10.92,13.32 13.58,22.11 2.94,8.26 4.27,18.38 4.27,29.83z"/>
  <path class="fil5" d="M11286.89 997.05c0,13.05 -1.6,24.24 -4.79,33.3 -3.2,9.06 -8.26,16.51 -15.45,22.38 -7.19,5.86 -16.25,10.12 -27.17,12.52 -11.19,2.67 -24.51,4 -40.22,4 -13.58,0 -25.84,-0.8 -37.03,-2.67 -11.19,-1.86 -21.31,-4.26 -31.17,-7.19l8.26 -39.43c9.06,3.2 19.18,5.6 30.37,7.46 11.19,1.86 21.85,2.93 32.23,2.93 5.33,0 10.39,-0.53 15.18,-1.33 4.53,-0.8 8.53,-2.4 11.72,-4.53 3.2,-2.13 5.86,-5.33 7.72,-9.32 1.86,-4 2.93,-8.79 2.93,-14.92 0,-4.53 -0.53,-8.53 -1.86,-11.99 -1.33,-3.2 -3.46,-6.13 -6.66,-8.79 -3.2,-2.4 -7.19,-4.79 -12.25,-6.93 -5.06,-2.13 -11.46,-4.26 -19.18,-6.39 -10.65,-3.2 -20.25,-6.39 -28.5,-10.12 -8.26,-3.73 -15.45,-8.26 -20.78,-13.58 -5.6,-5.6 -9.86,-11.99 -12.79,-19.98 -2.93,-7.72 -4.53,-17.32 -4.53,-28.78 0,-25.04 6.93,-42.62 20.51,-53.01 13.58,-10.39 33.83,-15.45 60.47,-15.45 11.46,0 22.11,1.07 31.97,2.93 9.86,2.13 19.98,5.06 30.64,9.32l-5.6 38.1c-7.99,-3.2 -17.05,-5.86 -26.64,-7.72 -9.6,-1.86 -19.44,-2.67 -29.3,-2.67 -5.06,0 -9.6,0.26 -13.85,0.8 -4.26,0.53 -7.72,1.6 -10.92,3.46 -2.93,1.86 -5.6,4.53 -7.19,7.72 -1.86,3.2 -2.67,7.72 -2.67,13.05 0,5.6 0.8,10.12 2.67,13.85 1.6,3.73 4.26,6.93 7.99,9.6 3.46,2.67 7.72,4.79 13.05,6.93 5.06,1.86 11.19,4 18.11,5.86 11.99,3.46 22.38,7.19 30.64,10.92 8.26,3.73 14.92,8.26 19.98,13.32 5.06,5.33 8.79,11.46 10.92,18.65 2.16,7.98 3.22,16.77 3.22,27.7z"/>
  <polygon class="fil5" points="11406.5,869.44 11406.5,1065.24 11360.96,1065.24 11360.96,869.44 11299.42,869.44 11299.42,829.75 11468.04,829.75 11468.04,869.44 "/>
  <polygon class="fil5" points="11613.49,1065.24 11544.76,1065.24 11480.83,829.75 11529.31,829.75 11579.4,1025.55 11580.99,1025.55 11631.34,829.75 11677.69,829.75 "/>
  <path class="fil5" d="M11789.04 1029.28c9.6,0 17.58,-1.33 23.97,-4 6.13,-2.67 11.19,-7.19 14.92,-13.58 3.73,-6.39 6.13,-14.92 7.46,-25.57 1.33,-10.65 2.13,-23.71 2.13,-39.16 0,-15.72 -0.8,-29.04 -2.13,-39.43 -1.33,-10.39 -4,-18.65 -7.46,-25.04 -3.73,-6.13 -8.53,-10.65 -14.92,-13.05 -6.13,-2.4 -14.12,-3.73 -23.97,-3.73 -9.6,0 -17.58,1.33 -23.71,3.73 -6.13,2.4 -11.19,6.93 -14.92,13.05 -3.73,6.39 -6.13,14.65 -7.46,25.04 -1.33,10.39 -2.13,23.44 -2.13,39.43 0,15.45 0.8,28.5 2.13,39.16 1.33,10.65 4,19.18 7.46,25.57 3.73,6.39 8.53,10.92 14.92,13.58 6.13,2.67 14.13,4 23.71,4l0 0zm0.53 39.96c-16.25,0 -30.37,-1.86 -42.36,-5.6 -11.99,-3.73 -22.11,-10.12 -30.1,-19.44 -7.99,-9.32 -13.85,-21.58 -17.85,-37.29 -4,-15.45 -5.86,-35.17 -5.86,-58.87 0,-23.71 1.86,-43.42 5.86,-59.14 4,-15.72 9.86,-28.24 17.85,-37.56 7.99,-9.32 18.11,-15.99 30.1,-19.98 11.99,-3.73 26.11,-5.86 42.36,-5.86 15.99,0 30.1,1.86 42.09,5.86 11.99,4 21.85,10.39 29.83,19.71 7.99,9.32 14.12,21.85 17.85,37.29 4,15.45 5.86,35.17 5.86,58.61 0,23.97 -1.86,43.69 -5.86,59.4 -3.73,15.72 -9.6,28.24 -17.58,37.56 -7.99,9.32 -17.85,15.99 -29.83,19.71 -11.99,3.73 -26.37,5.59 -42.36,5.59z"/>
  <polygon class="fil5" points="11986.44,1065.24 11986.44,1025.02 12091.66,868.91 11991.5,868.91 11991.5,829.75 12143.07,829.75 12143.07,869.18 12036.52,1026.08 12145.47,1026.08 12145.47,1065.24 "/>
  <path class="fil5" d="M12233.38 977.06l59.14 0 -29.04 -106.02 -1.6 0 -28.5 106.02 0 0zm69.79 38.63l-80.18 0 -13.05 49.55 -47.96 0 71.39 -235.49 61.54 0 71.66 235.49 -49.28 0 -14.12 -49.55z"/>
  <rect class="fil5" x="12465.67" y="829.75" width="45.82" height="235.49"/>
  <polygon class="fil5" points="12550.12,1065.24 12550.12,1025.02 12655.34,868.91 12555.17,868.91 12555.17,829.75 12706.75,829.75 12706.75,869.18 12600.2,1026.08 12709.14,1026.08 12709.14,1065.24 "/>
  <path class="fil5" d="M12828.22 1029.28c9.6,0 17.58,-1.33 23.71,-4 6.39,-2.67 11.19,-7.19 14.92,-13.58 3.73,-6.39 6.13,-14.92 7.46,-25.57 1.33,-10.65 2.13,-23.71 2.13,-39.16 0,-15.72 -0.8,-29.04 -2.13,-39.43 -1.33,-10.39 -4,-18.65 -7.46,-25.04 -3.73,-6.13 -8.53,-10.65 -14.92,-13.05 -6.13,-2.4 -14.12,-3.73 -23.71,-3.73 -9.6,0 -17.58,1.33 -23.71,3.73 -6.13,2.4 -11.19,6.93 -14.92,13.05 -3.73,6.39 -6.13,14.65 -7.46,25.04 -1.33,10.39 -2.13,23.44 -2.13,39.43 0,15.45 0.8,28.5 2.13,39.16 1.33,10.65 4,19.18 7.46,25.57 3.73,6.39 8.53,10.92 14.92,13.58 6.13,2.67 13.85,4 23.71,4l0 0zm0.27 39.96c-16.25,0 -30.37,-1.86 -42.36,-5.6 -11.99,-3.73 -22.11,-10.12 -30.1,-19.44 -7.99,-9.32 -13.85,-21.58 -17.85,-37.29 -4,-15.45 -5.86,-35.17 -5.86,-58.87 0,-23.71 1.86,-43.42 5.86,-59.14 4,-15.72 9.86,-28.24 17.85,-37.56 7.99,-9.32 18.11,-15.99 30.1,-19.98 11.99,-3.73 26.11,-5.86 42.36,-5.86 15.99,0 30.1,1.86 42.09,5.86 11.99,4 21.85,10.39 29.83,19.71 7.99,9.32 14.12,21.85 17.85,37.29 4,15.45 5.86,35.17 5.86,58.61 0,23.97 -1.86,43.69 -5.86,59.4 -3.73,15.72 -9.6,28.24 -17.58,37.56 -7.99,9.32 -17.85,15.99 -29.83,19.71 -11.99,3.73 -26.11,5.59 -42.36,5.59z"/>
  <path class="fil5" d="M13086.09 995.71c0,-5.06 -0.53,-9.6 -1.86,-13.32 -1.33,-3.73 -3.46,-6.93 -6.39,-9.6 -2.93,-2.4 -7.19,-4.53 -12.52,-5.86 -5.33,-1.33 -11.99,-1.86 -19.98,-1.86l-34.63 0.01 0 60.21 42.1 -0.01c12.52,0 21.04,-2.4 26.11,-7.46 4.79,-4.79 7.19,-12.25 7.19,-22.11l0 0zm-4.79 -98.83c0,-9.86 -2.4,-16.78 -6.93,-21.04 -4.53,-4.26 -13.05,-6.13 -25.31,-6.13l-38.36 0.01 0 57.01 32.77 0c14.92,0 25.04,-2.4 30.1,-7.46 5.33,-5.06 7.72,-12.52 7.72,-22.38l0 0zm51.94 103.1c0,23.44 -6.93,40.22 -20.51,50.08 -13.85,9.86 -34.9,14.92 -63.4,14.92l-84.45 -0.01 0 -235.49 83.65 0c14.65,0 27.17,1.33 37.29,3.73 10.12,2.4 18.38,6.13 24.78,10.92 6.39,5.06 10.92,11.19 13.85,18.92 2.93,7.72 4.26,16.78 4.26,27.71 0,8.26 -0.8,15.45 -2.4,21.31 -1.6,5.86 -3.73,10.65 -6.39,14.92 -2.67,4.26 -5.86,7.46 -9.6,10.12 -3.73,2.67 -7.72,4.79 -11.99,6.39l0 1.6c4.79,1.86 9.32,4.26 13.58,6.93 4.26,2.67 7.99,6.13 10.92,10.12 2.93,4.26 5.6,9.32 7.46,15.45 1.86,6.13 2.94,13.84 2.94,22.37z"/>
  <path class="fil5" d="M13290.94 901.15c0,-12.79 -2.93,-21.31 -8.79,-25.57 -5.86,-4.26 -16.25,-6.66 -30.9,-6.66l-32.5 -0.01 0 66.33 32.5 0c7.99,0 14.39,-0.53 19.71,-1.86 5.06,-1.07 9.06,-3.2 12.25,-5.86 2.93,-2.67 5.06,-6.13 6.13,-10.65 1.06,-4 1.59,-9.32 1.59,-15.72l0 0zm46.63 -1.34c0,16.51 -2.93,30.37 -8.79,41.56 -5.86,11.19 -15.72,19.44 -29.04,24.78l51.94 99.36 -52.75 -0.01 -45.82 -92.44 -34.9 0 0 92.44 -45.82 0 0 -235.49 81.25 0c15.99,0 29.3,1.6 40.22,4.53 10.65,2.93 19.44,7.46 25.57,13.32 6.39,5.86 10.92,13.32 13.58,22.11 3.2,8.26 4.54,18.38 4.54,29.83z"/>
  <path class="fil5" d="M13432.4 977.06l59.14 0 -29.04 -106.02 -1.6 0 -28.5 106.02 0 0zm69.52 38.63l-80.18 0 -13.05 49.55 -47.96 0 71.39 -235.49 61.54 0 71.66 235.49 -49.27 0 -14.13 -49.55z"/>
  <path class="fil5" d="M13618.87 753.03l43.42 25.57 44.49 -26.11 15.99 27.17 -62.07 36.23 -60.21 -34.1 18.37 -28.76 0 0zm-38.1 312.21l0 -40.22 105.22 -156.37 -100.43 0 0 -39.16 151.58 -0.01 0 39.43 -106.55 156.9 108.95 0 0 39.16 -158.77 0 0 0.27z"/>
  <polygon class="fil5" points="13777.1,1065.24 13777.1,829.75 13927.61,829.75 13927.61,869.44 13822.65,869.44 13822.65,926.98 13914.29,926.98 13914.29,966.14 13822.65,966.14 13822.65,1025.55 13927.61,1025.55 13927.61,1065.24 "/>
  <polygon class="fil5" points="14078.39,1065.24 14009.66,1065.24 13945.73,829.75 13994.2,829.75 14044.02,1025.55 14045.62,1025.55 14095.96,829.75 14142.32,829.75 "/>
  <path class="fil5" d="M14206.25 977.06l59.14 0 -29.04 -106.02 -1.6 0 -28.5 106.02 0 0zm69.79 38.63l-80.18 0 -13.05 49.55 -47.96 0 71.39 -235.49 61.54 0 71.66 235.49 -49.27 0 -14.13 -49.55z"/>
  <polygon class="fil5" points="14409.24,888.62 14407.65,888.62 14407.65,1065.24 14366.62,1065.24 14366.62,829.75 14427.36,829.75 14506.74,1011.7 14508.6,1011.7 14508.6,829.75 14549.37,829.75 14549.37,1065.24 14488.36,1065.24 "/>
  <path class="fil5" d="M14565.62 1096.67c7.72,-2.4 14.12,-5.06 19.18,-7.99 5.06,-2.93 9.32,-6.39 12.25,-10.39 3.2,-4 5.33,-8.79 6.39,-14.39 1.07,-5.6 1.86,-12.25 1.86,-19.98l0 -214.44 45.82 0 0 210.72c0,13.05 -1.07,24.78 -3.46,35.17 -2.4,10.39 -6.13,19.44 -11.99,26.9 -5.6,7.72 -13.05,14.39 -22.64,19.71 -9.32,5.6 -21.31,9.86 -35.17,13.58l-12.24 -38.89z"/>
  <polygon class="fil5" points="14700.94,1065.24 14700.94,829.75 14851.45,829.75 14851.45,869.44 14746.49,869.44 14746.49,926.98 14838.12,926.98 14838.12,966.14 14746.49,966.14 14746.49,1025.55 14851.45,1025.55 14851.45,1065.24 "/>
  <polygon class="fil5" points="14917.51,1115.59 14889.27,1107.33 14899.66,1066.31 14887.94,1063.11 14887.94,1017.82 14935.63,1017.82 14935.63,1057.52 "/>
  <polygon class="fil5" points="9885.16,1460.03 9885.16,1419.8 9990.39,1263.43 9889.96,1263.43 9889.96,1224.54 10041.79,1224.54 10041.79,1263.97 9935.24,1420.87 10043.93,1420.87 10043.93,1460.03 "/>
  <polygon class="fil5" points="10123.84,1283.41 10122.25,1283.41 10122.25,1459.76 10081.48,1459.76 10081.48,1224.28 10141.95,1224.28 10221.6,1406.22 10223.2,1406.22 10223.2,1224.28 10263.96,1224.28 10263.96,1459.76 10203.23,1459.76 "/>
  <path class="fil5" d="M10363.32 1371.85l59.14 0 -29.04 -106.02 -1.6 0 -28.5 106.02 0 0zm69.79 38.36l-80.18 0 -13.05 49.55 -47.96 0.01 71.39 -235.49 61.54 0 71.66 235.49 -49.27 0 -14.13 -49.56z"/>
  <polygon class="fil5" points="10566.32,1283.41 10564.72,1283.41 10564.72,1459.76 10523.96,1459.76 10523.96,1224.28 10584.43,1224.28 10664.08,1406.22 10665.68,1406.22 10665.68,1224.28 10706.44,1224.28 10706.44,1459.76 10645.44,1459.76 "/>
  <path class="fil5" d="M10843.1 1424.06c9.6,0 17.58,-1.33 23.71,-4 6.39,-2.67 11.19,-7.19 14.92,-13.58 3.73,-6.39 6.13,-14.92 7.46,-25.57 1.33,-10.65 2.13,-23.71 2.13,-39.16 0,-15.72 -0.8,-29.04 -2.13,-39.43 -1.33,-10.39 -4,-18.65 -7.46,-25.04 -3.73,-6.13 -8.53,-10.65 -14.92,-13.05 -6.13,-2.67 -14.12,-3.73 -23.71,-3.73 -9.6,0 -17.58,1.33 -23.71,3.73 -6.39,2.4 -11.19,6.93 -14.92,13.05 -3.73,6.39 -6.13,14.65 -7.46,25.04 -1.33,10.39 -2.13,23.44 -2.13,39.43 0,15.45 0.8,28.5 2.13,39.16 1.33,10.65 4,19.18 7.46,25.57 3.73,6.39 8.53,10.92 14.92,13.58 6.13,2.67 14.12,4 23.71,4l0 0zm0.53 39.7c-16.25,0 -30.37,-1.86 -42.36,-5.6 -11.99,-3.73 -22.11,-10.12 -30.1,-19.44 -7.99,-9.32 -13.85,-21.58 -17.85,-37.29 -4,-15.45 -5.86,-35.17 -5.86,-58.87 0,-23.71 1.86,-43.42 5.86,-59.14 4,-15.72 9.86,-28.24 17.85,-37.56 7.99,-9.32 18.11,-15.99 30.1,-19.98 11.99,-3.73 26.11,-5.86 42.36,-5.86 15.99,0 30.1,1.86 42.09,5.86 11.99,3.73 21.85,10.39 29.83,19.71 7.99,9.32 13.85,21.85 17.85,37.29 4,15.45 5.86,35.17 5.86,58.61 0,23.97 -1.86,43.69 -5.86,59.4 -3.73,15.72 -9.6,28.24 -17.58,37.56 -7.99,9.32 -17.85,15.99 -29.83,19.71 -11.99,3.72 -26.11,5.59 -42.36,5.59z"/>
  <path class="fil5" d="M11124.4 1391.56c0,13.05 -1.6,24.24 -4.79,33.3 -3.2,9.06 -8.26,16.51 -15.45,22.38 -7.19,5.86 -16.25,10.12 -27.17,12.52 -11.19,2.67 -24.51,4 -40.22,4 -13.58,0 -25.84,-0.8 -37.03,-2.67 -11.19,-1.86 -21.58,-4.26 -31.17,-7.19l8.26 -39.43c9.06,3.2 19.18,5.6 30.37,7.46 11.19,1.86 21.85,2.93 32.23,2.93 5.6,0 10.65,-0.53 15.18,-1.33 4.53,-0.8 8.53,-2.4 11.99,-4.53 3.2,-2.13 5.86,-5.33 7.72,-9.32 1.86,-4 2.93,-8.79 2.93,-14.92 0,-4.53 -0.8,-8.53 -1.86,-11.72 -1.33,-3.2 -3.46,-6.13 -6.66,-8.79 -3.2,-2.4 -7.19,-4.79 -12.25,-6.93 -5.06,-2.13 -11.46,-4.26 -19.18,-6.39 -10.65,-3.2 -20.25,-6.39 -28.5,-10.12 -8.26,-3.73 -15.18,-8.26 -20.78,-13.58 -5.6,-5.6 -9.86,-11.99 -12.79,-19.98 -2.93,-7.72 -4.53,-17.32 -4.53,-28.78 0,-25.04 6.93,-42.62 20.51,-53.01 13.58,-10.39 33.83,-15.45 60.47,-15.45 11.46,0 22.11,1.07 31.97,2.93 9.86,2.13 19.98,5.06 30.64,9.32l-5.6 38.1c-7.99,-3.2 -17.05,-5.86 -26.64,-7.72 -9.6,-1.86 -19.44,-2.67 -29.3,-2.67 -5.06,0 -9.6,0.26 -13.85,0.8 -4.26,0.53 -7.72,1.86 -10.92,3.73 -3.2,1.86 -5.6,4.53 -7.19,7.72 -1.86,3.2 -2.67,7.72 -2.67,13.05 0,5.33 0.8,10.12 2.67,13.85 1.6,3.73 4.26,6.93 7.99,9.6 3.46,2.67 7.72,5.06 13.05,6.93 5.06,1.86 11.19,4 18.38,5.86 11.99,3.46 22.38,7.19 30.64,10.92 8.26,3.73 14.92,8.26 19.98,13.58 5.06,5.33 8.79,11.46 10.92,18.65 1.61,7.19 2.68,16.25 2.68,26.9z"/>
  <polygon class="fil5" points="11244.28,1264.23 11244.28,1459.76 11198.45,1459.76 11198.45,1264.23 11136.92,1264.23 11136.92,1224.28 11305.54,1224.28 11305.54,1264.23 "/>
  <rect class="fil5" x="11408.91" y="1224.27" width="45.82" height="235.49"/>
  <polygon class="fil5" points="11547.16,1283.41 11545.3,1283.41 11545.3,1459.76 11504.54,1459.76 11504.54,1224.28 11565.01,1224.28 11644.66,1406.22 11646.26,1406.22 11646.26,1224.28 11687.28,1224.28 11687.28,1459.76 11626.27,1459.76 "/>
  <path class="fil5" d="M11833.79 1147.82l43.42 25.57 44.49 -25.84 15.99 27.17 -62.07 36.23 -60.21 -34.1 18.37 -29.04 0 0zm120.41 243.74c0,13.05 -1.6,24.24 -4.79,33.3 -3.2,9.06 -8.26,16.51 -15.45,22.38 -7.19,5.86 -16.25,10.12 -27.44,12.52 -11.19,2.67 -24.51,4 -40.22,4 -13.58,0 -25.84,-0.8 -37.03,-2.67 -11.19,-1.86 -21.31,-4.26 -31.17,-7.19l8.26 -39.43c9.06,3.2 19.18,5.6 30.37,7.46 11.19,1.86 21.85,2.93 32.23,2.93 5.33,0 10.39,-0.53 15.18,-1.33 4.53,-0.8 8.53,-2.4 11.72,-4.53 3.2,-2.13 5.86,-5.33 7.72,-9.32 1.86,-4 2.67,-8.79 2.67,-14.92 0,-4.53 -0.53,-8.53 -1.86,-11.72 -1.33,-3.2 -3.46,-6.13 -6.66,-8.79 -3.2,-2.4 -7.19,-4.79 -12.25,-6.93 -5.06,-2.13 -11.46,-4.26 -19.18,-6.39 -10.65,-3.2 -20.25,-6.39 -28.5,-10.12 -8.26,-3.73 -15.18,-8.26 -20.78,-13.58 -5.6,-5.33 -9.86,-11.99 -12.79,-19.98 -2.93,-7.72 -4.53,-17.32 -4.53,-28.78 0,-25.04 6.93,-42.62 20.51,-53.01 13.58,-10.39 33.83,-15.45 60.47,-15.45 11.46,0 22.11,1.07 31.97,2.93 9.86,2.13 19.98,5.06 30.64,9.32l-5.6 38.1c-7.99,-3.2 -17.05,-5.86 -26.64,-7.72 -9.6,-1.86 -19.44,-2.67 -29.3,-2.67 -5.06,0 -9.6,0.26 -13.85,0.8 -4.26,0.53 -7.72,1.86 -10.92,3.73 -3.2,1.86 -5.6,4.53 -7.19,7.72 -1.6,3.2 -2.67,7.72 -2.67,13.05 0,5.33 0.8,10.12 2.67,13.85 1.6,3.73 4.26,6.93 7.99,9.6 3.46,2.67 7.72,5.06 13.05,6.93 5.06,1.86 11.19,4 18.11,5.86 11.99,3.46 22.38,7.19 30.64,10.92 8.26,3.73 14.92,8.26 19.98,13.58 5.06,5.33 8.79,11.46 10.92,18.65 2.69,7.19 3.75,16.25 3.75,26.9z"/>
  <path class="fil5" d="M12107.91 1297.8c0,-6.66 -0.53,-11.99 -1.86,-16.51 -1.33,-4.26 -3.46,-7.72 -6.66,-10.39 -3.2,-2.67 -7.19,-4.53 -12.25,-5.33 -5.06,-1.07 -11.46,-1.6 -18.92,-1.6l-33.31 0 0 67.66 33.31 0c7.99,0 14.39,-0.53 19.44,-1.86 5.06,-1.33 9.06,-3.2 12.25,-5.86 3.2,-2.67 5.33,-6.13 6.39,-10.39 0.81,-4 1.6,-9.32 1.6,-15.72l0 0zm46.62 -2.13c0,12.52 -1.33,23.44 -4.53,32.76 -2.93,9.32 -7.72,17.32 -14.39,23.71 -6.66,6.39 -15.18,11.19 -25.84,14.39 -10.65,3.2 -23.71,5.06 -38.89,5.06l-36.23 0 0 88.18 -45.82 0 0 -235.49 81.78 0c15.72,0 29.04,1.6 39.69,4.53 10.65,3.2 19.44,7.72 25.84,13.58 6.39,6.13 11.19,13.58 13.85,22.38 3.2,9.05 4.53,19.44 4.53,30.89z"/>
  <path class="fil5" d="M12271.21 1424.06c9.6,0 17.58,-1.33 23.97,-4 6.39,-2.67 11.19,-7.19 14.92,-13.58 3.73,-6.39 6.13,-14.92 7.46,-25.57 1.33,-10.65 2.13,-23.71 2.13,-39.16 0,-15.72 -0.8,-29.04 -2.13,-39.43 -1.33,-10.39 -4,-18.65 -7.46,-25.04 -3.73,-6.13 -8.53,-10.65 -14.92,-13.05 -6.13,-2.67 -14.12,-3.73 -23.97,-3.73 -9.86,0 -17.58,1.33 -23.71,3.73 -6.13,2.4 -11.19,6.93 -14.92,13.05 -3.73,6.39 -6.13,14.65 -7.46,25.04 -1.33,10.39 -2.13,23.44 -2.13,39.43 0,15.45 0.8,28.5 2.13,39.16 1.33,10.65 4,19.18 7.46,25.57 3.73,6.39 8.53,10.92 14.92,13.58 6.13,2.67 14.12,4 23.71,4l0 0zm0.53 39.7c-16.25,0 -30.37,-1.86 -42.36,-5.6 -11.99,-3.73 -22.11,-10.12 -30.1,-19.44 -7.99,-9.32 -14.12,-21.58 -17.85,-37.29 -4,-15.45 -5.86,-35.17 -5.86,-58.87 0,-23.71 1.86,-43.42 5.86,-59.14 4,-15.72 9.86,-28.24 17.85,-37.56 7.99,-9.32 18.11,-15.99 30.1,-19.98 11.99,-3.73 26.11,-5.86 42.36,-5.86 15.99,0 30.1,1.86 41.82,5.86 11.99,3.73 21.85,10.39 29.83,19.71 7.99,9.32 14.12,21.85 17.85,37.29 4,15.45 5.86,35.17 5.86,58.61 0,23.97 -1.86,43.69 -5.86,59.4 -3.73,15.72 -9.6,28.24 -17.58,37.56 -7.99,9.32 -17.85,15.99 -29.83,19.71 -11.73,3.72 -26.12,5.59 -42.1,5.59z"/>
  <path class="fil5" d="M12526.14 1295.66c0,-12.79 -2.93,-21.31 -8.79,-25.57 -5.86,-4.26 -16.25,-6.66 -30.9,-6.66l-32.51 0 0 66.33 32.5 0c7.99,0 14.39,-0.53 19.44,-1.86 5.06,-1.07 9.32,-3.2 12.25,-5.86 2.93,-2.67 5.06,-6.13 6.13,-10.39 1.34,-4.26 1.87,-9.6 1.87,-15.99l0 0zm46.88 -1.06c0,16.51 -2.93,30.37 -8.79,41.56 -5.86,11.19 -15.72,19.44 -29.04,24.78l51.94 99.36 -52.74 -0.01 -45.82 -92.44 -34.9 0 0 92.44 -45.82 0 0 -235.49 81.25 -0.01c15.99,0 29.3,1.33 40.22,4.53 10.65,2.93 19.44,7.46 25.57,13.32 6.39,5.86 10.92,13.32 13.58,22.11 2.93,8.26 4.53,18.38 4.53,29.84z"/>
  <polygon class="fil5" points="12703.02,1264.23 12703.02,1459.76 12657.46,1459.76 12657.46,1264.23 12595.94,1264.23 12595.94,1224.28 12764.56,1224.28 12764.56,1264.23 "/>
  <rect class="fil6" x="15540.6" y="407.26" width="1519.48" height="1032"/>
  <rect class="fil7" x="15569.63" y="435.49" width="1461.14" height="974.18"/>
  <polygon class="fil8" points="16269.17,647.81 16300.07,625.17 16330.7,647.81 16318.98,611.31 16350.42,588.93 16311.79,588.93 16300.07,551.91 16288.08,588.93 16249.72,588.93 16280.89,611.31 "/>
  <polygon class="fil8" points="16109.6,690.7 16140.5,668.06 16171.14,690.7 16159.42,654.2 16190.85,631.82 16152.22,631.82 16140.5,594.8 16128.52,631.82 16089.89,631.82 16121.32,654.2 "/>
  <polygon class="fil8" points="16023.56,711.74 16011.84,748.77 15973.21,748.77 16004.64,771.15 15992.92,807.64 16023.56,785 16054.46,807.64 16042.74,771.15 16074.17,748.77 16035.55,748.77 "/>
  <polygon class="fil8" points="15980.94,944.56 16011.57,966.94 15999.85,930.71 16031.28,908.08 15992.66,908.08 15980.94,871.31 15968.95,908.08 15930.59,908.08 15961.76,930.71 15950.03,966.94 "/>
  <polygon class="fil8" points="16035.55,1067.91 16023.56,1031.14 16011.84,1067.91 15973.21,1067.91 16004.64,1090.28 15992.92,1126.78 16023.56,1104.13 16054.46,1126.78 16042.74,1090.28 16074.17,1067.91 "/>
  <polygon class="fil8" points="16152.49,1184.85 16140.77,1148.08 16128.78,1184.85 16090.16,1184.85 16121.59,1207.22 16109.87,1243.72 16140.77,1221.35 16171.4,1243.72 16159.68,1207.22 16191.12,1184.85 "/>
  <polygon class="fil8" points="16311.79,1227.21 16300.07,1190.44 16288.35,1227.21 16249.72,1227.21 16280.89,1249.85 16269.17,1286.08 16300.07,1263.7 16330.7,1286.08 16318.98,1249.85 16350.42,1227.21 "/>
  <polygon class="fil8" points="16471.09,1184.85 16459.37,1148.08 16447.65,1184.85 16409.02,1184.85 16440.19,1207.22 16428.47,1243.72 16459.37,1221.35 16490.27,1243.72 16478.55,1207.22 16509.72,1184.85 "/>
  <polygon class="fil8" points="16588.31,1067.91 16576.32,1031.14 16564.6,1067.91 16525.97,1067.91 16557.14,1090.28 16545.42,1126.78 16576.32,1104.13 16607.22,1126.78 16595.5,1090.28 16626.67,1067.91 "/>
  <polygon class="fil8" points="16669.03,907.54 16630.67,907.54 16618.67,870.77 16606.95,907.8 16568.32,907.54 16599.49,930.18 16587.77,966.41 16618.67,944.03 16649.57,966.41 16637.85,930.18 "/>
  <polygon class="fil8" points="16545.42,807.11 16576.32,784.73 16607.22,807.11 16595.5,770.61 16626.67,748.24 16588.31,748.24 16576.32,711.47 16564.6,748.24 16525.97,748.24 16557.14,770.61 "/>
  <polygon class="fil8" points="16459.91,594.8 16447.92,631.82 16409.29,631.82 16440.73,654.2 16429.01,690.7 16459.91,668.06 16490.54,690.7 16478.82,654.2 16510.25,631.82 16471.63,631.82 "/>
  <polygon class="fil7" points="17211.65,653.14 17211.65,435.49 17360.83,435.49 17360.83,472.26 17255.61,472.26 17255.61,523.67 17346.45,523.67 17346.45,560.43 17255.61,560.43 17255.61,653.14 "/>
  <path class="fil7" d="M17396.8 495.44l41.82 0 0 157.7 -41.82 0 0 -157.7 0 0zm0 -59.95l41.82 0 0 38.62 -41.82 0.01 0 -38.63z"/>
  <path class="fil7" d="M17624.56 653.14l-41.82 0 0 -80.45c0,-17.05 -0.8,-27.97 -2.67,-33.03 -1.86,-5.06 -4.53,-8.79 -8.79,-11.72 -4,-2.93 -8.79,-4.26 -14.39,-4.26 -7.19,0 -13.85,1.86 -19.44,5.86 -5.6,4 -9.6,9.32 -11.72,15.72 -2.13,6.66 -3.2,18.65 -3.2,36.23l0 71.39 -41.82 -0.01 0 -157.7 38.63 0 0 23.18c13.85,-17.85 31.17,-26.64 51.94,-26.64 9.32,0 17.58,1.6 25.31,5.06 7.72,3.2 13.32,7.46 17.32,12.79 4,5.06 6.66,10.92 8.26,17.58 1.6,6.39 2.4,15.99 2.4,27.97l0 98.03z"/>
  <path class="fil7" d="M17754.02 577.21c-5.33,1.86 -13.85,4 -25.31,6.39 -11.72,2.4 -19.18,4.79 -22.64,7.19 -5.33,3.73 -8.26,8.79 -8.26,14.65 0,5.86 2.13,10.92 6.66,15.18 4.26,4.26 9.86,6.39 16.51,6.39 7.46,0 14.65,-2.4 21.58,-7.46 5.06,-3.73 8.26,-8.26 9.86,-13.85 1.07,-3.46 1.6,-10.39 1.6,-20.25l0.01 -8.25 0 0zm-55.94 -33.83l-37.83 -6.93c4.26,-15.18 11.72,-26.37 22.11,-33.83 10.39,-7.19 25.84,-10.92 46.35,-10.92 18.65,0 32.5,2.13 41.56,6.66 9.06,4.53 15.45,9.86 19.18,16.78 3.73,6.66 5.6,19.18 5.6,37.29l-0.53 48.75c0,13.85 0.53,23.97 1.86,30.64 1.33,6.66 3.73,13.58 7.46,21.04l-41.3 0c-1.07,-2.67 -2.4,-6.93 -4,-12.25 -0.8,-2.4 -1.07,-4 -1.6,-4.79 -7.19,6.93 -14.65,12.25 -22.91,15.72 -7.99,3.46 -16.78,5.06 -25.84,5.06 -16.25,0 -29.04,-4.26 -38.36,-13.32 -9.32,-8.79 -14.12,-19.98 -14.12,-33.3 0,-8.79 2.13,-16.78 6.39,-23.71 4.26,-6.93 10.12,-12.25 17.85,-15.99 7.72,-3.73 18.65,-6.93 33.3,-9.86 19.44,-3.73 33.03,-7.19 40.49,-10.12l0 -4.26c0,-7.99 -1.86,-13.85 -5.86,-17.05 -4,-3.46 -11.46,-5.06 -22.38,-5.06 -7.46,0 -13.32,1.33 -17.32,4.26 -4.27,2.93 -7.46,7.99 -10.13,15.18z"/>
  <path class="fil7" d="M17979.39 653.14l-41.82 0 0 -80.45c0,-17.05 -0.8,-27.97 -2.67,-33.03 -1.86,-5.06 -4.79,-8.79 -8.79,-11.72 -4,-2.93 -8.79,-4.26 -14.39,-4.26 -7.19,0 -13.85,1.86 -19.44,5.86 -5.6,4 -9.6,9.32 -11.72,15.72 -2.13,6.66 -3.2,18.65 -3.2,36.23l0 71.39 -41.81 -0.01 0 -157.7 38.62 0 0 23.18c13.85,-17.85 31.17,-26.64 51.94,-26.64 9.32,0 17.58,1.6 25.31,5.06 7.73,3.46 13.32,7.46 17.32,12.79 4,5.06 6.66,10.92 8.26,17.58 1.6,6.39 2.4,15.99 2.4,27.97l0 98.03z"/>
  <path class="fil7" d="M18159.2 542.05l-41.03 7.46c-1.33,-8.26 -4.53,-14.39 -9.32,-18.65 -4.79,-4.26 -11.19,-6.13 -19.18,-6.13 -10.39,0 -18.65,3.73 -24.78,10.65 -6.13,7.19 -9.32,19.18 -9.32,35.96 0,18.65 3.2,31.97 9.32,39.69 6.39,7.72 14.65,11.46 25.31,11.46 7.99,0 14.39,-2.13 19.44,-6.66 5.06,-4.53 8.53,-12.25 10.65,-23.18l41.03 6.93c-4.26,18.65 -12.52,33.03 -24.51,42.62 -11.99,9.6 -28.24,14.39 -48.48,14.39 -23.18,0 -41.56,-7.19 -55.14,-21.85 -13.58,-14.65 -20.51,-34.63 -20.51,-60.47 0,-26.11 6.93,-46.35 20.51,-60.74 13.85,-14.39 32.23,-21.85 55.94,-21.85 19.18,0 34.36,4.26 45.82,12.25 11.2,8.54 19.19,21.05 24.24,38.11z"/>
  <path class="fil7" d="M18190.64 495.44l41.81 0 0 157.7 -41.81 0 0 -157.7 0 0zm0 -59.95l41.81 0 0 38.62 -41.81 0.01 0 -38.63z"/>
  <path class="fil7" d="M18315.04 653.14l-41.82 0 0 -157.7 38.62 0 0 22.38c6.66,-10.65 12.52,-17.58 17.85,-21.04 5.33,-3.46 11.19,-5.06 18.11,-5.06 9.6,0 18.65,2.67 27.44,7.99l-12.79 36.23c-6.93,-4.53 -13.58,-6.93 -19.71,-6.93 -5.86,0 -10.65,1.6 -14.92,4.79 -4,3.2 -7.19,9.06 -9.6,17.32 -2.4,8.53 -3.46,26.11 -3.46,52.75l0.01 49.27 0.27 0z"/>
  <path class="fil7" d="M18480.46 577.21c-5.33,1.86 -13.85,4 -25.31,6.39 -11.72,2.4 -19.18,4.79 -22.64,7.19 -5.33,3.73 -8.26,8.79 -8.26,14.65 0,5.86 2.13,10.92 6.39,15.18 4.26,4.26 9.86,6.39 16.51,6.39 7.46,0 14.65,-2.4 21.58,-7.46 5.06,-3.73 8.26,-8.26 9.86,-13.85 1.07,-3.46 1.6,-10.39 1.6,-20.25l0.01 -8.25 0.26 0zm-55.94 -33.83l-37.83 -6.93c4.26,-15.18 11.72,-26.37 21.85,-33.83 10.39,-7.19 25.84,-10.92 46.35,-10.92 18.65,0 32.5,2.13 41.56,6.66 9.06,4.53 15.45,9.86 19.18,16.78 3.73,6.66 5.6,19.18 5.6,37.29l-0.53 48.75c0,13.85 0.8,23.97 2.13,30.64 1.33,6.66 3.73,13.58 7.46,21.04l-41.31 0c-1.07,-2.67 -2.4,-6.93 -4,-12.25 -0.8,-2.4 -1.07,-4 -1.6,-4.79 -7.19,6.93 -14.65,12.25 -22.91,15.72 -7.99,3.46 -16.78,5.06 -26.11,5.06 -16.25,0 -29.04,-4.26 -38.36,-13.32 -9.32,-8.79 -14.12,-19.98 -14.12,-33.3 0,-8.79 2.13,-16.78 6.39,-23.71 4.26,-6.93 10.12,-12.25 17.85,-15.99 7.72,-3.73 18.65,-6.93 33.3,-9.86 19.44,-3.73 33.03,-7.19 40.49,-10.12l0 -4.26c0,-7.99 -2.13,-13.85 -5.86,-17.05 -4,-3.46 -11.46,-5.06 -22.38,-5.06 -7.46,0 -13.32,1.33 -17.32,4.26 -3.74,2.93 -7.19,7.99 -9.86,15.18z"/>
  <polygon class="fil7" points="17211.39,1017.82 17211.39,800.18 17372.82,800.18 17372.82,836.94 17255.34,836.94 17255.34,885.16 17364.56,885.16 17364.56,921.92 17255.34,921.92 17255.34,981.06 17376.81,981.06 17376.81,1017.82 "/>
  <path class="fil7" d="M17457.27 1017.82l-63.67 -157.7 43.69 0 29.57 80.45 8.53 26.9c2.4,-6.93 3.73,-11.19 4.26,-13.58 1.33,-4.53 2.93,-8.79 4.53,-13.32l30.1 -80.45 42.89 0 -62.6 157.7 -37.29 0z"/>
  <path class="fil7" d="M17622.96 1017.82l-41.82 0 0 -157.7 38.62 0 0 22.38c6.66,-10.65 12.52,-17.58 17.85,-20.78 5.33,-3.46 11.19,-5.06 18.11,-5.06 9.6,0 18.65,2.67 27.44,7.99l-12.79 36.23c-6.93,-4.53 -13.58,-6.93 -19.71,-6.93 -5.86,0 -10.92,1.6 -14.92,4.79 -4,3.2 -7.19,9.06 -9.6,17.32 -2.4,8.53 -3.46,26.11 -3.46,52.75l0.01 49.01 0.27 0z"/>
  <path class="fil7" d="M17734.31 938.97c0,15.72 3.73,27.71 11.19,35.96 7.46,8.26 16.51,12.52 27.44,12.52 10.92,0 19.98,-4.26 27.44,-12.52 7.46,-8.26 10.92,-20.51 10.92,-36.23 0,-15.45 -3.73,-27.17 -10.92,-35.69 -7.46,-8.26 -16.51,-12.52 -27.44,-12.52 -10.92,0 -19.98,4 -27.44,12.52 -7.45,8.25 -11.19,20.24 -11.19,35.95l0 0zm-42.62 -2.13c0,-13.85 3.46,-27.17 10.12,-40.22 6.93,-13.05 16.51,-22.91 29.04,-29.57 12.52,-6.93 26.37,-10.12 41.82,-10.12 23.71,0 43.42,7.72 58.61,23.18 15.18,15.45 22.91,34.9 22.91,58.61 0,23.97 -7.72,43.69 -23.18,59.4 -15.45,15.72 -34.63,23.44 -58.07,23.44 -14.39,0 -28.24,-3.2 -41.29,-9.86 -13.05,-6.39 -23.18,-15.99 -29.83,-28.78 -6.92,-12.79 -10.12,-27.97 -10.12,-46.08z"/>
  <path class="fil7" d="M17926.91 936.31c0,17.58 3.46,30.9 10.65,39.16 6.93,8.53 15.72,12.79 25.57,12.79 9.6,0 17.85,-4 24.24,-11.72 6.39,-7.72 9.6,-20.51 9.6,-38.1 0,-16.51 -3.2,-28.78 -9.86,-36.76 -6.66,-7.99 -14.92,-11.99 -24.51,-11.99 -10.12,0 -18.65,4 -25.31,11.72 -6.93,7.73 -10.39,19.46 -10.39,34.91l0 0zm-41.29 -76.19l38.89 0 0 23.18c5.06,-7.99 11.99,-14.39 20.51,-19.44 8.53,-4.79 18.11,-7.46 28.5,-7.46 18.38,0 33.83,7.19 46.62,21.58 12.79,14.39 19.18,34.36 19.18,59.94 0,26.37 -6.39,46.89 -19.18,61.27 -12.79,14.65 -28.5,21.85 -46.89,21.85 -8.79,0 -16.51,-1.6 -23.71,-5.06 -7.19,-3.46 -14.65,-9.32 -22.38,-17.85l0 79.39 -41.81 0 0 -217.37 0.27 0z"/>
  <path class="fil7" d="M18057.97 972.8l41.82 -6.39c1.86,8.26 5.33,14.39 10.92,18.38 5.33,4.26 13.05,6.39 22.91,6.39 10.65,0 18.92,-1.86 24.24,-5.86 3.73,-2.67 5.6,-6.39 5.6,-11.19 0,-3.2 -1.07,-5.86 -2.93,-7.99 -2.13,-1.86 -6.66,-3.73 -13.85,-5.6 -33.57,-7.46 -54.87,-14.12 -63.93,-20.25 -12.52,-8.53 -18.65,-20.25 -18.65,-35.43 0,-13.58 5.33,-25.04 16.25,-34.36 10.65,-9.32 27.44,-13.85 50.08,-13.85 21.58,0 37.56,3.46 48.22,10.65 10.39,6.93 17.85,17.32 21.58,31.17l-39.43 7.19c-1.6,-6.13 -4.79,-10.92 -9.6,-14.12 -4.79,-3.2 -11.46,-4.79 -19.98,-4.79 -10.92,0 -18.92,1.6 -23.71,4.53 -3.2,2.13 -4.79,5.06 -4.79,8.53 0,2.93 1.33,5.6 4.26,7.72 3.73,2.67 16.78,6.66 38.89,11.72 22.11,5.06 37.83,11.19 46.62,18.65 8.79,7.46 13.05,17.85 13.05,31.17 0,14.39 -6.13,26.9 -18.11,37.29 -11.99,10.39 -29.83,15.72 -53.54,15.72 -21.58,0 -38.36,-4.26 -50.88,-13.05 -13.04,-9.33 -21.29,-21.31 -25.03,-36.24z"/>
  <polygon class="fil7" points="18240.18,1017.82 18240.18,800.18 18281.74,800.18 18281.74,915.8 18330.76,860.12 18381.91,860.12 18328.09,917.66 18385.89,1017.82 18340.88,1017.82 18301.19,946.96 18281.74,967.21 18281.74,1017.82 "/>
  <path class="fil7" d="M18497.78 942.17c-5.33,1.86 -13.85,4 -25.31,6.39 -11.72,2.4 -19.18,4.79 -22.64,7.19 -5.33,4 -8.26,8.79 -8.26,14.65 0,5.86 2.13,10.92 6.39,15.18 4.26,4.26 9.86,6.39 16.51,6.39 7.46,0 14.65,-2.4 21.58,-7.46 5.06,-3.73 8.26,-8.26 9.86,-13.85 1.07,-3.46 1.6,-10.39 1.6,-20.25l0.01 -8.25 0.26 0zm-55.94 -33.83l-37.83 -6.93c4.26,-15.18 11.46,-26.64 21.85,-33.83 10.39,-7.19 25.84,-10.92 46.35,-10.92 18.65,0 32.5,2.13 41.56,6.66 9.06,4.26 15.45,10.12 19.18,16.78 3.73,6.66 5.6,19.18 5.6,37.29l-0.53 48.75c0,13.85 0.8,23.97 2.13,30.64 1.33,6.66 3.73,13.58 7.46,21.04l-41.31 0c-1.07,-2.67 -2.4,-6.93 -4,-12.25 -0.8,-2.4 -1.33,-4 -1.6,-4.79 -7.19,6.93 -14.65,11.99 -22.91,15.45 -7.99,3.46 -16.78,5.06 -25.84,5.06 -16.25,0 -29.04,-4.26 -38.36,-13.32 -9.32,-8.79 -14.12,-19.98 -14.12,-33.3 0,-8.79 2.13,-16.78 6.39,-23.71 4.26,-6.93 10.12,-12.25 17.85,-15.99 7.72,-3.73 18.65,-6.93 33.3,-9.6 19.44,-3.73 33.03,-7.19 40.49,-10.12l0 -4.26c0,-7.99 -2.13,-13.85 -5.86,-17.05 -4,-3.46 -11.46,-5.06 -22.38,-5.06 -7.46,0 -13.32,1.6 -17.32,4.26 -4.27,2.66 -7.47,7.72 -10.13,15.18z"/>
  <path class="fil7" d="M18767.9 1017.82l0 -23.71c-5.86,8.53 -13.32,14.92 -22.64,19.98 -9.32,4.79 -19.18,7.19 -29.57,7.19 -10.65,0 -19.98,-2.4 -28.5,-6.93 -8.53,-4.79 -14.39,-11.19 -18.38,-19.71 -3.73,-8.53 -5.6,-19.98 -5.6,-34.9l0 -99.63 41.83 0.01 0 72.46c0,22.11 0.8,35.69 2.4,40.76 1.6,5.06 4.26,9.06 8.53,11.72 4,2.93 9.32,4.26 15.45,4.26 7.19,0 13.58,-1.86 19.18,-5.86 5.6,-4 9.6,-8.79 11.46,-14.65 2.13,-5.86 3.2,-19.98 3.2,-42.62l0 -66.6 41.8 0 0 157.7 -39.16 0 0 0.53z"/>
  <path class="fil7" d="M18993.26 1017.82l-41.81 0 0 -80.45c0,-17.05 -0.8,-27.97 -2.67,-33.03 -1.86,-5.06 -4.79,-8.79 -8.79,-11.72 -4,-2.67 -8.79,-4.26 -14.39,-4.26 -7.19,0 -13.58,2.13 -19.44,5.86 -5.86,4 -9.6,9.32 -11.72,15.72 -2.13,6.39 -3.2,18.65 -3.2,36.23l0 71.39 -41.82 0 0 -157.7 38.62 0 0 23.18c13.85,-17.85 31.17,-26.64 51.94,-26.64 9.06,0 17.58,1.6 25.31,5.06 7.73,3.46 13.32,7.46 17.32,12.79 4,5.06 6.66,10.92 8.26,17.58 1.6,6.39 2.4,15.99 2.4,27.97l0 98.02z"/>
  <path class="fil7" d="M19035.62 860.12l41.82 0 0 157.7 -41.82 0 0 -157.7 0 0zm0 -59.94l41.82 0 0 38.62 -41.82 0 0 -38.62z"/>
  <path class="fil7" d="M19119 800.18l41.82 0 0 38.62 -41.82 0 0 -38.62 0 0zm41.82 59.94l0 152.64c0,19.98 -1.33,34.36 -4,42.62 -2.67,8.26 -7.72,14.65 -15.18,19.44 -7.46,4.53 -17.05,6.93 -28.5,6.93 -4.26,0 -8.53,-0.53 -13.32,-1.07 -4.79,-0.8 -9.86,-1.86 -15.45,-3.46l7.19 -35.69c1.86,0.26 3.73,0.8 5.6,1.07 1.86,0.26 3.46,0.26 4.79,0.26 4.26,0 7.72,-0.8 10.39,-2.67 2.67,-1.86 4.53,-4 5.33,-6.66 0.8,-2.67 1.33,-10.39 1.33,-23.18l0 -150.25 41.83 0.01z"/>
  <path class="fil7" d="M19291.35 942.17c-5.33,1.86 -13.85,4 -25.31,6.39 -11.72,2.4 -19.18,4.79 -22.64,7.19 -5.33,4 -8.26,8.79 -8.26,14.65 0,5.86 2.13,10.92 6.39,15.18 4.26,4.26 9.86,6.39 16.51,6.39 7.46,0 14.65,-2.4 21.58,-7.46 5.06,-3.73 8.26,-8.26 9.86,-13.85 1.07,-3.46 1.6,-10.39 1.6,-20.25l0.01 -8.25 0.26 0zm-55.67 -33.83l-37.83 -6.93c4.26,-15.18 11.72,-26.64 22.11,-33.83 10.39,-7.19 25.84,-10.92 46.35,-10.92 18.65,0 32.5,2.13 41.56,6.66 9.06,4.26 15.45,10.12 19.18,16.78 3.73,6.66 5.6,19.18 5.6,37.29l-0.53 48.75c0,13.85 0.8,23.97 1.86,30.64 1.33,6.66 3.73,13.58 7.46,21.04l-41.31 0c-1.07,-2.67 -2.4,-6.93 -4,-12.25 -0.8,-2.4 -1.07,-4 -1.6,-4.79 -7.19,6.93 -14.65,11.99 -22.91,15.45 -7.99,3.46 -16.78,5.06 -25.84,5.06 -16.25,0 -29.04,-4.26 -38.36,-13.32 -9.32,-8.79 -14.12,-19.98 -14.12,-33.3 0,-8.79 2.13,-16.78 6.39,-23.71 4.26,-6.93 10.12,-12.25 17.85,-15.99 7.72,-3.73 18.65,-6.93 33.3,-9.6 19.44,-3.73 33.03,-7.19 40.49,-10.12l0 -4.26c0,-7.99 -2.13,-13.85 -5.86,-17.05 -4,-3.46 -11.46,-5.06 -22.38,-5.06 -7.46,0 -13.32,1.6 -17.32,4.26 -4.26,2.66 -7.72,7.72 -10.12,15.18z"/>
  <path class="fil9" d="M17235.36 1409.15l0 -147.58 98.83 147.58 25.57 0 0 -188.07 -23.97 0 0 147.58 -98.83 -147.58 -25.57 0 0 188.07 23.97 0 0 0zm241.88 -22.64c-6.13,4.53 -13.05,6.93 -21.58,6.93 -11.46,0 -21.04,-4 -28.5,-11.72 -7.72,-8.26 -11.72,-19.44 -12.52,-34.36l101.76 -0.01 0 -6.13c0,-22.64 -5.86,-39.96 -17.32,-52.21 -11.46,-12.25 -26.37,-18.65 -44.49,-18.65 -18.92,0 -34.1,6.39 -46.08,18.92 -11.72,12.52 -17.58,30.37 -17.58,53.28 0,22.11 5.86,39.16 17.58,51.41 11.46,12.25 27.44,18.38 47.42,18.38 15.72,0 28.78,-4 38.89,-11.46 10.12,-7.72 17.05,-18.38 20.78,-32.23l-23.97 -3.2c-3.46,9.33 -8.26,16.52 -14.39,21.05l0 0zm-49.28 -86.85c7.19,-7.19 15.99,-10.65 26.64,-10.65 11.72,0 21.31,4.53 28.78,13.32 4.79,5.86 7.72,14.12 8.53,25.84l-75.92 0c0.8,-11.98 4.52,-21.3 11.98,-28.5l0 0zm128.93 109.49l36.5 -51.94 6.66 10.12 28.24 42.09 28.24 0 -49.28 -70.59 46.35 -65.8 -28.24 -0.01 -22.64 31.97c-3.2,4.53 -6.66,9.32 -10.39,14.92 -2.4,-4 -5.6,-9.06 -9.6,-14.65l-21.58 -32.23 -28.5 -0.01 46.35 65.8 -49.82 70.59 27.71 0.01 0 -0.26zm159.3 -19.71c-3.46,0 -6.13,-0.53 -7.99,-1.6 -1.86,-1.33 -3.2,-2.67 -4,-4.79 -0.8,-1.86 -1.33,-6.13 -1.33,-12.52l0 -79.92 23.18 0.01 0 -17.85 -23.18 0 0 -47.68 -23.18 13.85 0 33.57 -17.05 0 0 17.85 17.05 -0.01 0 78.58c0,13.85 1.07,22.91 2.93,27.44 1.86,4.26 5.06,7.99 9.86,10.65 4.53,2.67 10.92,4 19.44,4 5.06,0 10.65,-0.8 17.32,-2.13l-3.2 -20.25c-3.99,0.54 -7.45,0.82 -9.85,0.82l0 0zm179.01 -54.08l0 35.17c-5.33,4.79 -13.05,9.32 -23.44,13.32 -10.39,4.26 -20.78,6.39 -31.43,6.39 -12.25,0 -23.97,-2.67 -34.9,-8.26 -10.92,-5.6 -19.44,-13.85 -25.31,-25.31 -5.86,-11.19 -8.79,-25.57 -8.79,-42.36 0,-13.58 2.4,-26.37 7.19,-37.83 2.93,-6.93 6.93,-13.05 11.72,-18.65 5.33,-5.86 11.72,-10.12 20.25,-13.58 7.99,-3.46 18.11,-5.33 29.3,-5.33 9.32,0 18.11,1.6 25.84,5.06 7.99,3.2 13.85,7.72 18.11,13.05 4.26,5.6 7.72,12.79 10.65,22.64l22.38 -6.39c-3.2,-12.52 -7.99,-22.91 -14.12,-30.64 -6.39,-7.99 -14.92,-13.85 -25.84,-18.38 -10.92,-4.53 -23.44,-6.66 -37.03,-6.66 -18.65,0 -35.17,4 -49.55,11.46 -14.12,7.72 -25.31,19.44 -32.76,35.17 -7.72,15.99 -11.46,33.03 -11.46,51.15 0,18.65 4,35.17 11.46,50.08 7.72,14.92 19.18,26.64 34.1,34.36 14.92,7.99 31.7,11.72 50.35,11.72 13.58,0 27.17,-2.4 39.96,-7.46 12.79,-5.06 25.57,-12.25 37.83,-22.11l0 -69.53 -79.66 -0.01 0 22.11 55.14 0 0 0.81zm137.19 51.15c-6.13,4.53 -13.05,6.93 -21.58,6.93 -11.72,0 -21.04,-4 -28.78,-11.72 -7.72,-8.26 -11.72,-19.44 -12.52,-34.36l101.77 -0.01 0 -6.13c0,-22.64 -5.86,-39.96 -17.32,-52.21 -11.46,-12.25 -26.37,-18.65 -44.49,-18.65 -18.92,0 -34.1,6.39 -46.08,18.92 -11.72,12.52 -17.58,30.37 -17.58,53.28 0,22.11 5.86,39.16 17.58,51.41 11.46,12.25 27.44,18.38 47.42,18.38 15.72,0 28.5,-4 38.89,-11.46 10.12,-7.72 17.05,-18.38 20.78,-32.23l-23.97 -3.2c-3.46,9.33 -8.27,16.52 -14.13,21.05l0 0zm-49.55 -86.85c7.19,-7.19 15.99,-10.65 26.64,-10.65 11.72,0 21.31,4.53 28.5,13.32 4.79,5.86 7.72,14.12 8.79,25.84l-75.92 0c0.81,-11.98 4.53,-21.3 11.99,-28.5l0 0zm139.86 109.49l0 -74.32c0,-17.58 3.73,-29.3 10.92,-35.43 7.19,-6.39 15.45,-9.32 25.31,-9.32 6.39,0 11.46,1.33 15.99,4.26 4.79,2.67 7.99,6.66 9.86,10.92 1.86,4.79 2.67,11.72 2.67,21.31l0 82.85 23.16 -0.01 0 -83.91c0,-10.39 -0.53,-18.11 -1.33,-22.38 -1.33,-6.66 -3.73,-12.25 -7.19,-17.05 -3.46,-4.79 -8.53,-8.53 -15.45,-11.46 -6.93,-2.93 -14.39,-4.53 -22.64,-4.53 -18.92,0 -33.3,7.46 -43.42,22.38l0 -19.44 -20.78 -0.01 0 136.39 22.92 0 0 -0.26zm201.66 -22.64c-6.13,4.53 -13.05,6.93 -21.58,6.93 -11.46,0 -21.04,-4 -28.5,-11.72 -7.72,-8.26 -11.72,-19.44 -12.52,-34.36l101.76 -0.01 0 -6.13c0,-22.64 -5.86,-39.96 -17.32,-52.21 -11.46,-12.25 -26.37,-18.65 -44.49,-18.65 -18.92,0 -34.1,6.39 -46.08,18.92 -11.72,12.52 -17.58,30.37 -17.58,53.28 0,22.11 5.86,39.16 17.58,51.41 11.46,12.25 27.44,18.38 47.42,18.38 15.72,0 28.78,-4 38.89,-11.46 9.86,-7.72 17.05,-18.38 20.78,-32.23l-23.97 -3.2c-3.47,9.33 -8.27,16.52 -14.39,21.05l0 0zm-49.28 -86.85c7.19,-7.19 15.99,-10.65 26.64,-10.65 11.72,0 21.31,4.53 28.5,13.32 4.79,5.86 7.72,14.12 8.79,25.84l-75.92 0c0.53,-11.98 4.53,-21.3 11.99,-28.5l0 0zm139.59 109.49l0 -71.12c0,-9.86 1.33,-18.65 4,-27.17 1.6,-5.33 4.53,-9.6 8.53,-12.52 4,-2.93 8.79,-4.53 13.58,-4.53 5.6,0 10.92,1.6 16.78,4.79l8.26 -21.31c-8.26,-5.06 -15.99,-7.46 -23.71,-7.46 -5.6,0 -10.65,1.6 -14.92,4.79 -4.53,2.93 -9.32,9.32 -14.65,18.92l0 -20.78 -20.77 0.01 0 136.39 22.91 0 0 0zm157.97 0l24.23 0c-2.93,-5.33 -4.79,-10.65 -5.86,-16.51 -0.8,-5.6 -1.33,-19.18 -1.33,-40.49l0 -30.64c0,-10.12 -0.26,-17.32 -1.07,-21.31 -1.6,-6.39 -4,-11.46 -7.46,-15.72 -3.46,-4.26 -8.79,-7.72 -15.99,-10.12 -7.46,-2.93 -16.78,-4.26 -28.24,-4.26 -11.72,0 -22.11,1.6 -30.9,4.79 -8.79,3.46 -15.72,7.99 -20.51,13.85 -4.79,5.86 -7.99,13.58 -10.12,23.44l22.64 3.2c2.4,-9.6 6.39,-16.51 11.46,-20.25 5.33,-4 13.05,-5.86 24.24,-5.86 11.46,0 20.51,2.67 26.37,7.99 4.53,3.73 6.66,10.12 6.66,19.71l0 6.13c-9.06,3.2 -22.64,5.86 -41.56,7.99 -9.06,1.07 -15.72,2.4 -20.51,3.46 -6.13,1.86 -11.46,4.26 -16.51,7.72 -5.06,3.46 -9.06,7.99 -11.99,13.32 -2.93,5.33 -4.53,11.46 -4.53,18.11 0,11.19 4,20.78 11.99,27.97 8.26,7.46 19.71,10.92 34.63,10.92 9.06,0 17.58,-1.6 25.57,-4.53 7.99,-3.2 15.99,-8.26 24.78,-15.45 0.53,6.12 1.6,11.71 4,16.51l0 0zm-6.13 -59.67c0,10.12 -1.33,17.85 -4,22.91 -3.2,6.93 -7.99,11.99 -15.18,15.99 -6.93,4 -14.65,5.86 -23.71,5.86 -9.32,0 -15.99,-2.13 -20.51,-6.13 -4.79,-4.26 -7.19,-9.32 -7.19,-15.45 0,-4 1.07,-7.72 3.2,-10.65 2.13,-3.46 5.33,-5.86 9.32,-7.72 4,-1.6 10.65,-3.2 20.25,-4.53 16.78,-2.4 29.3,-5.33 37.83,-8.53l-0.01 8.27 0 0zm99.1 39.96c-3.46,0 -6.13,-0.53 -7.99,-1.6 -1.86,-1.33 -3.2,-2.67 -4,-4.79 -0.8,-1.86 -1.33,-6.13 -1.33,-12.52l0 -79.92 23.18 0.01 0 -17.85 -23.18 0 0 -47.68 -23.18 13.85 0 33.57 -17.05 0 0 17.85 17.05 -0.01 0 78.58c0,13.85 1.07,22.91 2.93,27.44 1.86,4.26 5.06,7.99 9.86,10.65 4.53,2.67 10.92,4 19.44,4 5.06,0 10.92,-0.8 17.32,-2.13l-3.2 -20.25c-4.26,0.54 -7.72,0.82 -9.85,0.82l0 0zm55.94 -168.36l-23.18 0 0 26.37 23.18 0 0 -26.37 0 0zm0 51.68l-23.18 0 0 136.39 23.18 0 0 -136.39 0 0zm43.96 120.94c11.72,12.25 27.44,18.38 46.35,18.38 11.99,0 22.91,-2.93 33.03,-8.53 9.86,-5.6 17.58,-13.05 22.91,-23.44 5.33,-10.12 7.99,-23.71 7.99,-41.29 0,-21.58 -6.13,-38.36 -17.85,-50.61 -11.72,-12.25 -27.17,-18.38 -46.08,-18.38 -16.78,0 -30.9,5.06 -42.89,15.18 -13.85,11.99 -21.04,30.64 -21.04,55.68 -0.01,23.44 5.85,41.02 17.58,53.01l0 0zm17.58 -91.64c7.72,-8.53 17.05,-12.79 28.78,-12.79 11.46,0 21.04,4.26 28.5,12.79 7.72,8.79 11.46,21.58 11.46,38.36 0,17.85 -4,30.9 -11.46,39.69 -7.72,8.79 -17.05,13.05 -28.5,13.05 -11.46,0 -21.04,-4.26 -28.78,-12.79 -7.72,-8.53 -11.46,-21.85 -11.46,-39.16 0,-17.31 4,-30.36 11.46,-39.16l0 0zm142.79 107.1l0 -74.32c0,-17.58 3.73,-29.3 10.65,-35.43 7.19,-6.39 15.45,-9.32 25.31,-9.32 6.39,0 11.46,1.33 15.99,4.26 4.79,2.67 7.99,6.66 9.86,10.92 1.86,4.79 2.67,11.72 2.67,21.31l0 82.85 23.16 -0.01 0 -83.91c0,-10.39 -0.53,-18.11 -1.33,-22.38 -1.33,-6.66 -3.73,-12.25 -7.19,-17.05 -3.46,-4.79 -8.79,-8.53 -15.45,-11.46 -6.93,-2.93 -14.39,-4.53 -22.64,-4.53 -18.92,0 -33.3,7.46 -43.42,22.38l0 -19.44 -20.77 -0.01 0 136.39 23.18 0 0 -0.26zm266.65 0l0 -22.11 -115.34 0 0 -64.2 103.89 -0.01 0 -22.11 -103.89 0 0 -57.8 110.82 0 0 -22.11 -135.86 0 0 188.07 140.38 -0.01 0 0.27zm157.71 -79.65c0,23.71 -4,39.69 -11.46,48.22 -7.99,8.26 -20.78,12.25 -39.16,12.25 -10.65,0 -19.44,-2.13 -26.9,-6.39 -7.46,-4.26 -12.52,-10.12 -15.72,-17.85 -2.93,-7.99 -4.53,-19.71 -4.53,-36.23l0 -108.42 -25.05 0 0 108.69c0,19.71 2.4,35.43 7.19,47.15 4.79,11.46 12.79,20.25 23.97,26.37 11.19,6.13 25.84,9.32 43.42,9.32 18.11,0 32.5,-3.46 43.96,-10.65 10.92,-6.93 18.65,-15.99 23.18,-27.17 4.26,-10.92 6.39,-26.37 6.39,-45.02l0 -108.69 -25.04 0 0 108.42 -0.26 0z"/>
 </g>
</svg>
